<svg width="56" height="53" viewBox="0 0 56 53" fill="none" xmlns="http://www.w3.org/2000/svg">
<path fill-rule="evenodd" clip-rule="evenodd" d="M48.8772 7.68388C46.9586 17.1934 43.9597 21.945 41.2035 24.1035L42.2112 25.3901C45.5209 22.798 48.7422 17.3221 50.678 6.98441C50.7832 6.42256 50.3296 5.78465 49.63 5.88797C48.4586 6.06096 45.7291 6.66097 42.6392 7.67137C39.5537 8.68032 36.0382 10.1209 33.3372 11.9997L34.2704 13.3413C36.7796 11.5959 40.1205 10.2143 43.1471 9.22465C45.4605 8.46818 47.5489 7.95383 48.8772 7.68388Z" fill="#E7CDFC"/>
<path fill-rule="evenodd" clip-rule="evenodd" d="M28.1125 50.2719C31.6525 44.9424 33.4029 40.7342 34.0577 37.4844L35.6597 37.8072C34.9131 41.5126 32.8905 46.1978 28.8909 52.0403C28.5551 52.5309 27.7827 52.623 27.3741 52.0728C26.1026 50.3601 22.0765 43.859 20.5312 37.8493L22.114 37.4423C23.4015 42.4497 26.5396 47.8972 28.1125 50.2719Z" fill="#E7CDFC"/>
<path fill-rule="evenodd" clip-rule="evenodd" d="M7.12277 7.68388C9.04137 17.1934 12.0403 21.945 14.7965 24.1035L13.7888 25.3901C10.4791 22.798 7.25776 17.3221 5.32202 6.98441C5.21681 6.42256 5.67041 5.78465 6.37002 5.88797C7.54136 6.06096 10.2709 6.66097 13.3608 7.67137C16.4463 8.68032 19.9618 10.1209 22.6628 11.9997L21.7296 13.3413C19.2204 11.5959 15.8795 10.2143 12.8529 9.22465C10.5395 8.46818 8.45112 7.95383 7.12277 7.68388Z" fill="#E7CDFC"/>
<path fill-rule="evenodd" clip-rule="evenodd" d="M21.0157 23.7933C19.3445 23.3974 17.497 24.0588 15.5666 25.5094C13.092 27.3691 10.7231 30.3494 8.83789 33.1836C7.37681 35.3803 6.23719 37.4417 5.59139 38.7378C13.8456 39.2733 18.6872 38.3415 21.6615 36.9533C24.7076 35.5317 25.8777 33.596 26.786 31.996C27.3326 31.0331 28.6926 31.0767 29.2011 32.0337C30.0597 33.6495 31.2298 35.5794 34.2879 36.9879C37.2772 38.3647 42.1455 39.2758 50.4101 38.7379C49.7643 37.4418 48.6247 35.3803 47.1635 33.1836C45.2783 30.3494 42.9094 27.3691 40.4348 25.5094C38.5044 24.0588 36.6569 23.3974 34.9857 23.7933L34.6091 22.203C36.979 21.6417 39.3331 22.6373 41.4166 24.203C44.1146 26.2305 46.6063 29.3951 48.5242 32.2786C50.4475 35.1701 51.8454 37.8581 52.3394 38.9999C52.6319 39.6759 52.0879 40.2539 51.5492 40.2953C42.5407 40.9873 37.0767 40.0715 33.6042 38.4722C30.3444 36.9709 28.913 34.8996 27.9765 33.2046C27.0158 34.8539 25.5899 36.9233 22.3527 38.4342C18.8944 40.0482 13.456 40.9869 4.45223 40.2953C3.91353 40.2539 3.36952 39.6759 3.662 38.9999C4.15601 37.8581 5.55392 35.1701 7.4772 32.2786C9.39514 29.3951 11.8869 26.2305 14.5849 24.203C16.6683 22.6373 19.0225 21.6417 21.3924 22.203L21.0157 23.7933Z" fill="#E7CDFC"/>
<path fill-rule="evenodd" clip-rule="evenodd" d="M25.1951 30.9986C25.1317 31.0543 25.0684 31.1098 25.0054 31.1654C24.7638 31.3787 24.7408 31.7475 24.9541 31.9892C25.1674 32.2309 25.5362 32.2539 25.7779 32.0406C25.8417 31.9842 25.9064 31.9274 25.972 31.8699C26.8653 31.0863 27.9103 30.1696 28.8934 28.4251C29.9409 26.5662 30.9035 23.7995 31.6293 19.2715L30.4767 19.0867C29.7631 23.5387 28.8315 26.1573 27.8765 27.852C26.9927 29.4203 26.0766 30.2246 25.1951 30.9986Z" fill="#E7CDFC"/>
<path fill-rule="evenodd" clip-rule="evenodd" d="M28.4497 26.7245C28.6875 26.8554 28.9328 26.9921 29.1668 27.1423L28.5362 28.1246C28.3391 27.9981 28.1254 27.8785 27.8866 27.747C27.8615 27.7332 27.8362 27.7192 27.8107 27.7052C27.5971 27.5877 27.3657 27.4605 27.1315 27.3195C26.6006 27.0002 26.0346 26.5989 25.4975 26.0035C24.4176 24.8065 23.5314 22.9125 23.1209 19.5413L24.2796 19.4002C24.673 22.6302 25.5004 24.2642 26.3642 25.2216C26.7989 25.7034 27.2622 26.0359 27.7333 26.3193C27.9469 26.4479 28.1579 26.5639 28.3737 26.6826C28.3989 26.6965 28.4243 26.7105 28.4497 26.7245Z" fill="#E7CDFC"/>
<path d="M24.8092 18.9456C24.8092 19.5903 24.2866 20.1129 23.6419 20.1129C22.9972 20.1129 22.4746 19.5903 22.4746 18.9456C22.4746 18.3009 22.9972 17.7783 23.6419 17.7783C24.2866 17.7783 24.8092 18.3009 24.8092 18.9456Z" fill="#E7CDFC"/>
<path d="M30.0132 18.3563C29.8463 18.979 30.2158 19.6191 30.8386 19.7859C31.4613 19.9528 32.1013 19.5832 32.2682 18.9605C32.435 18.3378 32.0655 17.6977 31.4428 17.5309C30.8201 17.364 30.18 17.7336 30.0132 18.3563Z" fill="#E7CDFC"/>
<path fill-rule="evenodd" clip-rule="evenodd" d="M29.395 26.8124C29.4296 26.8643 29.4644 26.9167 29.4995 26.9695L28.5268 27.6149C28.4901 27.5596 28.4534 27.5045 28.4166 27.4493C27.7596 26.463 27.0974 25.469 26.7254 23.6598C26.3394 21.782 26.268 19.051 26.7369 14.5088L27.898 14.6286C27.433 19.133 27.5189 21.7228 27.8688 23.4247C28.1945 25.009 28.7501 25.8437 29.395 26.8124Z" fill="#E7CDFC"/>
<path d="M28.4264 13.8099C28.4264 14.4545 27.9038 14.9772 27.2591 14.9772C26.6144 14.9772 26.0918 14.4545 26.0918 13.8099C26.0918 13.1652 26.6144 12.6426 27.2591 12.6426C27.9038 12.6426 28.4264 13.1652 28.4264 13.8099Z" fill="#E7CDFC"/>
<path fill-rule="evenodd" clip-rule="evenodd" d="M28.2317 2.24459C28.5135 2.28044 28.7481 2.43988 28.8926 2.65097C34.4815 10.8156 36.2206 16.7378 35.9871 20.8831C35.751 25.0748 33.4922 27.4008 31.3262 28.1988C30.9028 28.3548 30.4331 28.138 30.277 27.7146C30.121 27.2911 30.3378 26.8214 30.7613 26.6653C32.2816 26.1052 34.1539 24.3704 34.3555 20.7912C34.5524 17.294 33.1481 11.998 28.1126 4.4171C26.7193 6.52099 24.0867 11.0519 22.6107 15.5552C21.7473 18.1897 21.3169 20.7064 21.674 22.6893C21.8499 23.6659 22.2125 24.4891 22.788 25.142C23.3612 25.7924 24.1865 26.3203 25.3654 26.6442C25.8006 26.7637 26.0564 27.2134 25.9369 27.6485C25.8173 28.0837 25.3676 28.3395 24.9325 28.22C23.4929 27.8245 22.3753 27.1454 21.562 26.2226C20.7509 25.3023 20.2831 24.1862 20.0657 22.9789C19.6362 20.5939 20.1669 17.7644 21.0578 15.0463C22.8458 9.59087 26.2343 4.14796 27.3814 2.60657C27.5938 2.32104 27.9271 2.20584 28.2317 2.24459Z" fill="#E7CDFC"/>
</svg>
