<svg width="17" height="16" viewBox="0 0 17 16" fill="none" xmlns="http://www.w3.org/2000/svg">
<path fill-rule="evenodd" clip-rule="evenodd" d="M14.0767 12.1472C15.0682 10.8721 15.6586 9.26974 15.6586 7.52947C15.6586 3.37106 12.2875 0 8.12908 0C3.97067 0 0.599609 3.37106 0.599609 7.52947C0.599609 11.6879 3.97067 15.0589 8.12908 15.0589C9.86878 15.0589 11.4707 14.4689 12.7456 13.4781L14.9929 15.7255C15.3605 16.093 15.9564 16.093 16.324 15.7255C16.6915 15.3579 16.6915 14.762 16.324 14.3944L14.0767 12.1472ZM8.12869 13.176C5.00988 13.176 2.48159 10.6477 2.48159 7.5289C2.48159 4.41009 5.00988 1.88179 8.12869 1.88179C11.2475 1.88179 13.7758 4.41009 13.7758 7.5289C13.7758 10.6477 11.2475 13.176 8.12869 13.176Z" fill="#200F3F"/>
</svg>
