<svg width="15" height="9" viewBox="0 0 15 9" fill="none" xmlns="http://www.w3.org/2000/svg">
<path fill-rule="evenodd" clip-rule="evenodd" d="M14.5 4.49965C14.5 4.63226 14.4473 4.75944 14.3536 4.85321C14.2598 4.94698 14.1326 4.99965 14 4.99965L2.207 4.99965L5.354 8.14565C5.44789 8.23954 5.50063 8.36688 5.50063 8.49965C5.50063 8.63243 5.44789 8.75977 5.354 8.85365C5.26011 8.94754 5.13277 9.00029 5 9.00029C4.86722 9.00029 4.73989 8.94754 4.646 8.85365L0.646 4.85365C0.599437 4.80721 0.562494 4.75203 0.537288 4.69129C0.512081 4.63054 0.499106 4.56542 0.499106 4.49965C0.499106 4.43389 0.512081 4.36877 0.537288 4.30802C0.562494 4.24728 0.599437 4.1921 0.646 4.14565L4.646 0.145654C4.73989 0.0517679 4.86722 -0.000976987 5 -0.000976978C5.13278 -0.000976969 5.26011 0.0517679 5.354 0.145655C5.44789 0.239541 5.50063 0.366879 5.50063 0.499655C5.50063 0.63243 5.44789 0.759768 5.354 0.853655L2.207 3.99965L14 3.99965C14.1326 3.99965 14.2598 4.05233 14.3536 4.1461C14.4473 4.23987 14.5 4.36705 14.5 4.49965Z" fill="#200F3F"/>
</svg>
