<svg width="369" height="436" viewBox="0 0 369 436" fill="none" xmlns="http://www.w3.org/2000/svg">
<g clip-path="url(#clip0_133_6080)">
<g opacity="0.2">
<path d="M215.675 436C147.959 436 93.0644 429.896 93.0644 422.368C93.0644 414.839 147.959 408.735 215.675 408.735C283.391 408.735 338.285 414.839 338.285 422.368C338.285 429.896 283.391 436 215.675 436Z" fill="#0D0438"/>
</g>
<path d="M124.874 89.0273C130.361 63.1083 141.339 30.7318 177.819 10.2094C179.043 9.75029 196.205 3.48274 220.668 3.25251C245.929 2.99454 270.322 13.9943 270.566 14.1053C270.83 14.2259 271.135 14.219 271.394 14.0817C293.096 2.66723 310.803 15.0511 312.505 16.3077C313.488 18.015 314.412 19.8222 315.276 21.6335C316.17 23.5128 317.013 25.4198 317.788 27.356C319.357 31.2228 320.675 35.1977 321.739 39.2531C320.982 35.1311 319.961 31.0452 318.674 27.037C318.041 25.0287 317.335 23.0426 316.572 21.0746C315.993 19.585 315.371 18.119 314.707 16.653C329.318 17.2786 346.124 27.1951 351.932 48.4928C353.46 54.096 355.166 59.6188 356.814 64.9613C361.498 80.1371 365.926 94.471 365.747 108.507C365.698 112.355 364.307 115.5 361.612 117.851C353.707 124.745 337.052 123.074 335.574 122.909C334.339 122.411 321.338 116.959 309.2 103.024C297.49 89.5835 284.212 65.2608 287.444 25.7194C287.487 25.2021 287.1 24.7458 286.581 24.7042C286.071 24.664 285.609 25.0481 285.566 25.5669C282.276 65.817 295.866 90.6195 307.846 104.338C319.659 117.864 331.948 123.445 334.533 124.519C338.704 142.17 336.542 158.202 328.256 170.903C319.786 183.884 305.453 192.918 286.635 197.23C280.367 198.516 220.786 209.982 156.977 196.216C146.241 193.566 136.667 190.042 129.052 185.481C94.7615 164.949 116.678 116.525 117.259 115.268C117.595 114.67 120.676 108.851 124.874 89.0273ZM167.435 159.875C167.751 160.255 168.084 160.621 168.48 160.919L169.628 161.873C170.043 162.148 170.48 162.39 170.908 162.653C172.654 163.616 174.627 164.277 176.646 164.443C178.659 164.625 180.702 164.508 182.674 164.087C184.493 163.69 186.24 163.152 187.958 162.329L191.261 164.002L193.233 164.733C193.897 164.958 194.533 165.259 195.231 165.388C196.602 165.709 197.958 166.109 199.382 166.171C200.783 166.386 202.208 166.27 203.62 166.236C206.44 165.916 209.187 165.027 211.579 163.571C213.971 162.128 216.05 160.181 217.498 157.852C213.85 161.929 208.719 164.357 203.499 164.639C202.187 164.614 200.88 164.68 199.583 164.426C198.277 164.31 197.008 163.938 195.733 163.619C195.085 163.494 194.483 163.198 193.862 162.978L192.007 162.279L188.898 160.754L188.586 152.481C191.666 152.049 201.926 150.269 205.39 145.345C206.502 143.765 206.838 142.014 206.387 140.134C205.074 134.662 196.767 131.903 189.116 131.596C182.764 131.347 174.739 132.882 173.05 138.057C172.388 140.087 172.567 142.064 173.583 143.93C176.299 148.921 184.303 151.651 186.697 152.373L187.015 160.765C185.542 161.474 183.924 162.071 182.306 162.476C180.481 162.916 178.609 163.182 176.736 163.121C174.853 163.119 173.009 162.648 171.259 161.938C169.468 161.26 167.963 160.028 166.472 158.765L167.435 159.875Z" fill="#F6A226"/>
<path d="M286.002 28.0727C286.002 28.0727 284.319 20.6595 274.358 13.2478C271.845 11.3782 288.079 9.95242 289.301 9.29779C292.682 7.48923 301.45 8.872 311.169 14.4627L315.422 16.772C315.422 16.772 336.687 13.8552 349.441 39.2527C362.195 64.6502 361.84 85.0645 366.694 100.497C371.549 115.929 355.797 128.303 336.459 123.939C317.122 119.574 297.619 93.2293 291.334 73.166C285.048 53.1054 286.002 28.0727 286.002 28.0727Z" fill="#AB5D1D"/>
<path d="M255.334 202.547C255.334 202.547 262.944 170.52 238.581 150.698C214.218 130.876 197.768 108.76 207.633 68.4156C217.5 28.0725 249.574 6.68461 249.574 6.68461L232.357 3.87052L220.667 3.25195C220.667 3.25195 196.36 36.8212 191.987 69.9953C187.614 103.169 174.76 123.22 155.309 145.458C135.857 167.696 142.732 191.893 142.732 191.893C142.732 191.893 187.836 211.15 255.334 202.547Z" fill="white"/>
<path d="M175.236 143.029C174.468 141.615 174.337 140.181 174.839 138.643C176.028 135.006 181.975 133.453 187.75 133.453C188.183 133.453 188.612 133.463 189.039 133.479C195.971 133.757 203.525 136.284 204.554 140.575C204.877 141.922 204.647 143.128 203.848 144.261C200.552 148.947 189.232 150.507 187.683 150.7C186.376 150.325 177.787 147.72 175.236 143.029Z" fill="#0D0438"/>
<path d="M91.7537 74.3774C94.043 69.8213 96.4099 65.1099 98.3275 60.7785C100.848 55.0865 102.751 49.726 104.429 44.998C108.465 33.6237 111.381 25.4048 119.256 21.631C125.233 18.7669 131.29 16.3454 137.575 13.9446C135.699 15.9958 133.962 18.1359 132.308 20.3564C129.826 23.7252 127.528 27.2272 125.534 30.8957C123.539 34.5585 121.702 38.3116 120.223 42.2061C119.416 44.1256 118.794 46.1145 118.128 48.0839C117.47 50.0561 116.995 52.0838 116.42 54.0782C117.07 52.1046 117.621 50.1019 118.35 48.1602C119.088 46.2212 119.781 44.2671 120.656 42.3878C122.271 38.5723 124.238 34.9178 126.348 31.3686C128.457 27.8139 130.859 24.4423 133.424 21.2204C135.963 18.061 138.729 15.0042 141.71 12.3746C142.171 12.2012 142.627 12.0278 143.09 11.8531C147.289 10.2692 151.631 8.63124 156.129 6.831C166.419 2.71459 173.436 7.22905 175.826 9.19572C134.858 32.8637 126.273 73.3177 123.028 88.6378C119.335 106.088 116.493 112.567 115.781 114.021C112.576 114.769 90.8954 119.476 82.5328 112.184C75.7384 106.255 83.8805 90.0497 91.7537 74.3774Z" fill="#AB5D1D"/>
<g opacity="0.4">
<path d="M350.895 63.3133C346.626 50.1444 340.709 29.0117 316.753 21.5611C316.691 21.3988 316.635 21.2352 316.573 21.0729C315.993 19.5833 315.372 18.1174 314.708 16.6514C329.318 17.2769 346.124 27.1934 351.933 48.4912C353.461 54.0944 355.166 59.6171 356.815 64.9596C358.651 70.904 360.441 76.718 361.936 82.4363C361.718 83.7761 361.465 85.3073 361.465 85.3073C361.465 85.3073 355.269 76.8012 350.895 63.3133Z" fill="white"/>
</g>
<g opacity="0.4">
<path d="M321.186 36.4969C321.081 36.0046 320.966 35.515 320.853 35.0254C320.865 35.0559 320.876 35.0892 320.887 35.1197C321.696 37.379 321.511 37.1488 321.186 36.4969Z" fill="white"/>
</g>
<g opacity="0.4">
<path d="M303.879 16.6811C293.639 11.4704 283.681 9.93505 283.399 9.89206C299.32 7.03082 311.131 15.2928 312.505 16.308C313.488 18.0153 314.412 19.8225 315.276 21.6338C316.17 23.5131 317.013 25.4201 317.788 27.3563C318.819 29.8986 319.731 32.4907 320.545 35.1176C320.071 34.1495 313.859 21.7586 303.879 16.6811Z" fill="white"/>
</g>
<g opacity="0.4">
<path d="M222.834 11.5571C181.499 8.98845 160.642 28.0726 148.737 43.6271C140.528 54.3508 131.008 73.5751 125.884 84.4833C131.714 59.4145 143.441 29.5483 177.818 10.2103C179.042 9.75127 196.204 3.48372 220.667 3.25349C245.928 2.99552 270.321 13.9953 270.565 14.1062C270.829 14.2269 271.134 14.22 271.393 14.0827C271.57 13.9897 271.747 13.9107 271.924 13.8205C278.743 17.5375 283.565 21.4861 285.339 24.425C285.461 24.6816 285.574 24.9409 285.678 25.2017C285.618 25.3126 285.578 25.4347 285.567 25.5678C285.402 27.5844 285.291 29.5511 285.209 31.49C285.205 31.4873 285.199 31.4831 285.199 31.4831C285.199 31.4831 264.169 14.1256 222.834 11.5571Z" fill="white"/>
</g>
<g opacity="0.4">
<path d="M102.6 61.1555C98.393 70.7031 91.8912 77.8694 88.2569 81.4019C89.3953 79.0719 90.5767 76.7183 91.7525 74.3771C94.0418 69.821 96.4087 65.1096 98.3264 60.7782C100.847 55.0863 102.75 49.7258 104.427 44.9977C108.464 33.6235 111.38 25.4046 119.254 21.6307C125.232 18.7667 131.289 16.3451 137.574 13.9443C135.698 15.9956 133.961 18.1356 132.307 20.3561C132.085 20.6571 131.873 20.9664 131.653 21.2701C128.479 22.5128 119.724 26.1438 116.419 29.6222C112.349 33.9051 108.705 47.3028 102.6 61.1555Z" fill="white"/>
</g>
<g opacity="0.4">
<path d="M158.456 10.1174C151.895 12.3961 141.553 16.862 141.553 16.862L125.685 32.5136C125.744 32.4123 125.802 32.3097 125.862 32.2084L128.014 28.6898C129.692 26.1073 131.512 23.6219 133.426 21.2198C135.965 18.0604 138.731 15.0036 141.712 12.3739C142.173 12.2006 142.629 12.0272 143.092 11.8524C147.291 10.2686 151.633 8.6306 156.132 6.83037C165.755 2.98024 172.513 6.67919 175.303 8.78178L173.216 10.1174C172.943 10.1174 165.016 7.84005 158.456 10.1174Z" fill="white"/>
</g>
<g opacity="0.25">
<path d="M273.733 12.9417C275.832 11.9861 277.887 11.2511 279.89 10.6963C284.097 12.2469 295.682 18.0082 297.316 34.8164C299.321 55.4137 316.452 106.087 339.231 101.955C357.286 98.6818 361.599 89.0011 362.614 85.1232C364.56 93.0662 365.845 100.832 365.747 108.505C365.698 112.354 364.307 115.498 361.612 117.849C353.707 124.744 337.052 123.072 335.574 122.907C334.339 122.409 321.338 116.957 309.2 103.023C297.49 89.5822 284.212 65.2596 287.444 25.7181C287.487 25.2008 287.1 24.7445 286.581 24.7029C286.228 24.6752 285.907 24.8596 285.723 25.1426C285.618 24.911 285.489 24.6696 285.339 24.4228C282.713 18.918 275.977 14.3509 273.733 12.9417Z" fill="#0D0438"/>
</g>
<g opacity="0.4">
<path d="M285.723 25.1427C285.709 25.1635 285.688 25.1773 285.677 25.1995C285.573 24.9388 285.461 24.6808 285.339 24.4229C285.488 24.6711 285.617 24.9111 285.723 25.1427Z" fill="white"/>
</g>
<g opacity="0.25">
<path d="M285.723 25.1427C285.709 25.1635 285.688 25.1773 285.677 25.1995C285.573 24.9388 285.461 24.6808 285.339 24.4229C285.488 24.6711 285.617 24.9111 285.723 25.1427Z" fill="#021168"/>
</g>
<g opacity="0.25">
<path d="M108.105 154.199C108.561 159.262 109.686 163.922 111.459 168.152C109.066 163.181 108.207 158.361 108.105 154.199Z" fill="#021168"/>
</g>
<g opacity="0.25">
<path d="M331.678 123.191C334.979 139.722 332.632 154.723 324.791 166.741C316.321 179.721 301.988 188.755 283.17 193.067C276.902 194.353 217.321 205.819 153.512 192.054C142.775 189.403 133.202 185.879 125.586 181.319C122.324 179.366 119.576 177.158 117.265 174.764C117.618 175.261 117.989 175.752 118.373 176.237C110.106 165.803 108.985 152.558 110.287 141.078C116.944 166.219 134.036 180.819 178.288 187.382C222.54 193.944 258.684 183.008 284.685 170.248C309.108 158.262 316.589 118.477 317.407 113.693C323.258 118.581 328.486 121.588 331.7 123.202C331.693 123.199 331.685 123.195 331.678 123.191Z" fill="#0D0438"/>
</g>
<g opacity="0.25">
<path d="M87.0188 103.128C100.687 102.902 114.719 81.2977 120.733 62.0984C126.746 42.8991 141.568 24.1852 150.923 18.1091C160.277 12.0329 171.932 11.5586 171.932 11.5586L170.939 12.198C170.939 12.198 170.803 12.2937 170.567 12.4656C134.129 36.4277 126.131 73.9996 123.032 88.6387C119.338 106.089 116.497 112.567 115.784 114.022C113.33 114.595 100.032 117.486 90.1845 115.53C84.1597 111.828 87.0188 103.128 87.0188 103.128Z" fill="#0D0438"/>
</g>
<g opacity="0.4">
<path d="M189.418 140.193C181.634 139.773 175.416 137.727 175.529 135.623C175.643 133.519 182.045 132.154 189.829 132.574C197.614 132.994 203.832 135.041 203.718 137.145C203.605 139.249 197.202 140.614 189.418 140.193Z" fill="white"/>
</g>
<path d="M222.132 206.256C243.266 206.256 264.769 204.571 282.294 201.441C304.448 197.484 321.282 187.538 330.977 172.677C339.348 159.847 341.85 143.894 338.276 126.38C344.163 126.684 356.636 126.498 363.743 120.301C367.167 117.316 368.934 113.362 368.995 108.547C369.179 94.0007 364.679 79.4296 359.916 64.0027C358.275 58.6866 356.577 53.1888 355.063 47.6369C348.71 24.3337 329.995 13.7029 313.987 13.3783C310.344 10.8583 292.501 -0.0624115 270.878 10.6946C265.932 8.57817 244.471 0 221.499 0C221.21 0 220.923 0.00138693 220.635 0.00416079C198.514 0.213587 182.549 5.12055 177.922 6.71968C174.999 4.32168 166.767 -0.925083 154.925 3.81406C150.452 5.60459 146.12 7.23701 141.931 8.81811C133.574 11.9706 125.682 14.9483 117.852 18.7014C108.768 23.055 105.503 32.2586 101.368 43.9103C99.7093 48.5842 97.8291 53.8823 95.3581 59.4619C93.471 63.7212 91.1221 68.3965 88.8508 72.9179C80.032 90.4696 71.7027 107.048 80.4008 114.631C88.2144 121.444 104.702 119.458 112.61 118.002C110.701 123.004 107.772 132.022 106.803 142.328C104.847 163.15 111.963 179.036 127.383 188.27C148.006 200.62 179.994 204.613 203.197 205.79C209.395 206.102 215.749 206.256 222.132 206.256ZM335.344 121.523C334.691 121.523 334.065 121.8 333.624 122.294C333.119 122.86 332.925 123.637 333.104 124.373C337.334 141.835 335.263 157.666 327.115 170.157C318.133 183.925 302.354 193.173 281.485 196.9C240.885 204.151 164.584 205.165 129.754 184.311C115.799 175.954 109.619 162.013 111.387 142.875C112.738 128.243 118.451 115.941 118.509 115.819C118.887 115.011 118.768 114.058 118.201 113.371C117.634 112.683 116.723 112.382 115.858 112.601C109.219 114.272 90.451 117.272 83.4333 111.154C77.4335 105.923 85.6893 89.489 92.9745 74.99C95.2708 70.4187 97.646 65.6934 99.5775 61.3315C102.119 55.591 104.031 50.2055 105.717 45.4539C109.644 34.3876 112.481 26.3933 119.847 22.8622C127.498 19.1951 135.301 16.2521 143.562 13.1356C147.772 11.5476 152.124 9.90547 156.64 8.09829C168.303 3.43266 175.443 10.6433 175.741 10.9512C176.386 11.6211 177.377 11.8458 178.245 11.5088C178.416 11.4422 195.698 4.85287 220.681 4.6171C245.612 4.37022 269.76 15.2368 270.001 15.3464C270.65 15.6404 271.398 15.6196 272.029 15.2881C293.924 3.77384 311.086 16.922 311.807 17.4878C312.213 17.8068 312.718 17.983 313.235 17.983C327.652 17.983 344.802 27.5278 350.616 48.8505C352.15 54.4759 353.86 60.0111 355.513 65.3633C360.162 80.4351 364.557 94.6692 364.383 108.489C364.338 111.982 363.139 114.709 360.714 116.823C352.925 123.612 335.805 121.562 335.631 121.54C335.534 121.529 335.439 121.523 335.344 121.523Z" fill="#021168"/>
<path d="M335.343 126.136C336.273 126.136 337.151 125.569 337.5 124.646C337.951 123.456 337.353 122.126 336.164 121.673C336.029 121.621 322.604 116.383 310.134 102.019C298.643 88.7831 285.616 64.8197 288.803 25.8289C288.833 25.4488 288.769 25.066 288.617 24.7165C288.424 24.2769 283.762 13.9068 271.484 11.0012C270.249 10.7071 269.002 11.4755 268.709 12.7154C268.417 13.9553 269.184 15.198 270.423 15.4907C279.148 17.5544 283.174 24.2075 284.156 26.0854C281.021 66.4396 294.729 91.3891 306.819 105.233C320.047 120.38 333.942 125.763 334.527 125.985C334.796 126.087 335.072 126.136 335.343 126.136Z" fill="#021168"/>
<path d="M311.211 16.7864C314.542 21.9263 317.351 27.6072 319.624 33.3297C320.406 35.27 321.082 37.2519 321.738 39.2533C321.2 35.0648 320.393 30.8998 319.316 26.8056C318.208 22.6143 316.95 18.6227 315.257 14.5714C314.757 13.3939 313.395 12.8447 312.218 13.3454C310.881 13.8946 310.386 15.6033 311.211 16.7864Z" fill="#021168"/>
<path d="M116.429 117.138C117.214 117.138 117.976 116.736 118.405 116.01C118.542 115.779 121.806 110.099 126.207 89.3104C131.639 63.6605 142.494 31.6209 178.538 11.3704C179.648 10.7462 180.042 9.33989 179.42 8.23035C178.796 7.11941 177.388 6.72414 176.279 7.34964C133.793 31.2201 125.005 72.7296 121.697 88.3562C117.516 108.098 114.456 113.629 114.425 113.683C113.8 114.784 114.173 116.192 115.268 116.827C115.634 117.037 116.034 117.138 116.429 117.138Z" fill="#021168"/>
<path d="M139.705 9.80791C128.669 21.1821 121.062 35.7574 117.166 51.0483L116.421 54.0774C117.059 52.3063 117.804 49.9152 118.514 48.2134C120.765 42.4493 123.608 36.9002 126.941 31.7076C130.799 25.6897 135.318 20.1142 140.513 15.2322C141.219 14.5706 142.016 13.8633 142.743 13.2822C145.16 11.2156 142.097 7.67897 139.705 9.80791Z" fill="#021168"/>
<path d="M244.969 132.51C236.515 132.51 229.661 123.533 229.661 112.459C229.661 101.385 236.515 92.4082 244.969 92.4082C253.424 92.4082 260.277 101.385 260.277 112.459C260.277 123.533 253.424 132.51 244.969 132.51Z" fill="#0D0438"/>
<path d="M151.167 131.606C142.712 131.606 135.858 122.629 135.858 111.555C135.858 100.481 142.712 91.5039 151.167 91.5039C159.621 91.5039 166.475 100.481 166.475 111.555C166.475 122.629 159.621 131.606 151.167 131.606Z" fill="#0D0438"/>
<path d="M239.046 115.376C236.682 115.376 234.764 112.356 234.764 108.631C234.764 104.906 236.682 101.887 239.046 101.887C241.411 101.887 243.328 104.906 243.328 108.631C243.328 112.356 241.411 115.376 239.046 115.376Z" fill="white"/>
<g opacity="0.35">
<path d="M249.73 124.813C247.505 124.693 245.854 121.755 246.043 118.252C246.232 114.748 248.189 112.005 250.414 112.125C252.64 112.245 254.29 115.183 254.101 118.687C253.912 122.19 251.955 124.933 249.73 124.813Z" fill="white"/>
</g>
<path d="M156.908 115.444C154.543 115.444 152.626 112.425 152.626 108.7C152.626 104.975 154.543 101.955 156.908 101.955C159.272 101.955 161.189 104.975 161.189 108.7C161.189 112.425 159.272 115.444 156.908 115.444Z" fill="white"/>
<g opacity="0.35">
<path d="M145.579 122.943C143.563 122.943 141.929 120.37 141.929 117.196C141.929 114.021 143.563 111.448 145.579 111.448C147.595 111.448 149.229 114.021 149.229 117.196C149.229 120.37 147.595 122.943 145.579 122.943Z" fill="white"/>
</g>
<path d="M187.614 153.964C187.697 153.964 187.78 153.959 187.863 153.95C189.32 153.79 202.221 152.22 206.507 146.132C207.836 144.244 208.253 142.061 207.715 139.818C206.236 133.652 197.336 130.561 189.172 130.235C182.014 129.945 173.678 131.741 171.754 137.635C170.98 140.003 171.199 142.406 172.386 144.585C175.747 150.76 185.882 153.586 187.026 153.889C187.217 153.939 187.415 153.964 187.614 153.964ZM187.711 134.817C188.131 134.817 188.556 134.825 188.986 134.843C196.229 135.133 202.485 137.792 203.229 140.895C203.461 141.863 203.31 142.659 202.737 143.474C200.478 146.688 192.565 148.721 187.795 149.313C184.939 148.485 178.379 145.956 176.433 142.374C175.848 141.295 175.754 140.246 176.138 139.067C176.964 136.534 181.737 134.817 187.711 134.817Z" fill="#0D0438"/>
<path d="M217.5 157.855C208.871 165.452 198.616 164.64 189.084 159.359C187.896 158.629 186.882 159.374 185.787 159.903C184.579 160.466 183.317 160.932 182.038 161.309C176.727 162.976 170.966 162.287 166.474 158.768C169.611 164.492 176.824 166.534 182.944 165.276C185.096 164.883 187.078 164.274 189.062 163.292L186.873 163.28C191.837 166.249 197.845 168.152 203.709 167.4C209.481 166.657 215.032 163.101 217.5 157.855Z" fill="#0D0438"/>
<path d="M187.976 163.624C188.005 163.624 188.034 163.624 188.063 163.623C189.336 163.574 190.329 162.504 190.282 161.23L189.917 151.569C189.868 150.296 188.787 149.289 187.525 149.351C186.252 149.4 185.259 150.471 185.306 151.744L185.671 161.405C185.72 162.648 186.742 163.624 187.976 163.624Z" fill="#0D0438"/>
<path d="M141.762 395.705C144.685 395.719 147.615 395.936 150.516 396.366C151.975 396.541 153.407 396.861 154.852 397.132C156.276 397.487 157.721 397.782 159.12 398.24C161.961 399.028 164.687 400.168 167.384 401.376C164.759 400.026 162.08 398.736 159.265 397.792C157.879 397.257 156.442 396.881 155.02 396.445C153.578 396.096 152.141 395.692 150.674 395.437C147.757 394.845 144.791 394.465 141.81 394.291C139.187 394.139 136.585 394.128 133.923 394.34L134.516 379.145C138.178 379.651 142.02 380.041 145.068 380.311C155.585 381.246 168.897 381.733 174.716 380.294C184.015 377.995 190.764 371.694 192.795 369.612C193.767 370.399 195.693 371.886 198.359 373.618C197.202 376.347 193.375 385.667 192.631 391.287C192.43 392.806 192.594 394.748 192.782 396.996C193.416 404.542 194.283 414.878 181.766 418.454C167.542 422.521 135.631 423.14 124.66 416.203C122.688 414.957 121.558 413.535 121.298 411.976C119.5 401.194 131.965 396.687 133.157 396.283C135.936 395.846 138.877 395.685 141.762 395.705Z" fill="#F6A226"/>
<path d="M294.945 379.881C295.049 379.86 295.148 379.838 295.25 379.817V388.425C293.194 388.222 291.202 388.235 289.187 388.371C286.82 388.545 284.468 388.881 282.175 389.447C279.884 390.01 277.624 390.696 275.466 391.628C273.284 392.499 271.225 393.633 269.214 394.814C271.304 393.769 273.418 392.784 275.633 392.068C277.822 391.291 280.089 390.767 282.362 390.368C284.637 389.966 286.945 389.796 289.24 389.781C291.466 389.774 293.756 389.939 295.854 390.364C297.225 391.218 308.641 398.67 306.72 408.485C304.822 418.192 285.107 421.883 267.588 421.215C251.968 420.613 238.696 419.477 234.485 411.624C230.676 404.519 231.487 387.968 231.741 384.067C252.285 383.533 289.299 380.974 294.945 379.881Z" fill="#F6A226"/>
<path d="M192.816 406.548C192.816 406.548 168.056 392.54 142.298 395.015C116.541 397.489 119.299 411.378 122.111 415.371C124.923 419.364 139.94 423.168 158.94 422.233C177.941 421.298 192.068 421.684 192.816 406.548Z" fill="white"/>
<path d="M283.814 389.614C283.814 389.614 248.81 394.092 231.696 406.119C231.696 406.119 231.273 420.605 257.756 421.48C284.239 422.355 307.633 420.213 307.882 408.061C308.13 395.909 299.348 387.45 283.814 389.614Z" fill="white"/>
<path d="M238.58 204.5L220.886 226.547L209.075 204.593C213.551 204.75 218.028 204.826 222.468 204.826C227.916 204.826 233.308 204.712 238.58 204.5Z" fill="#C4C9D6"/>
<path d="M279.234 200.58C279.139 204.05 278.599 214.828 275.601 221.711C275.565 221.777 275.535 221.842 275.516 221.917C274.48 224.231 273.157 226.083 271.467 227.027C267.918 229.011 261.336 228.407 255.526 227.874C248.066 227.19 241.021 226.542 240.376 231.371C239.762 235.982 240.834 240.422 241.617 243.664C242.066 245.519 242.455 247.131 242.342 248.006C240.378 250.647 211.18 261.48 194.061 262.982L221.463 228.842C221.464 228.84 221.466 228.837 221.467 228.836L241.086 204.389C255.187 203.734 268.336 202.379 279.234 200.58Z" fill="white"/>
<path d="M206.889 204.509L213.287 216.4L206.127 224.902H188.424L179.503 213.97L188.273 203.229C194.402 203.83 200.639 204.251 206.889 204.509Z" fill="#9E00FF"/>
<path d="M272.387 228.67C273.629 227.976 274.69 226.89 275.605 225.55L276.201 240.487H268.621V229.927C270.021 229.676 271.297 229.279 272.387 228.67Z" fill="#727C93"/>
<path d="M266.312 252.984L266.416 252.797L276.154 253.425L275.253 263.339C275.041 263.741 273.778 265.636 268.873 265.071C264.077 264.518 262.933 260.607 262.703 259.499L266.29 253.023C266.298 253.01 266.307 252.997 266.312 252.984Z" fill="#727C93"/>
<path d="M268.66 266.941C275.653 267.752 277.013 264.04 277.069 263.882C277.093 263.81 277.109 263.735 277.116 263.66L277.985 254.093C280.001 255.423 283.824 258.747 283.741 264.777C283.698 267.924 281.998 270.809 278.957 272.9C274.458 275.993 268.212 276.646 262.652 274.599C257.43 272.678 255.98 267.585 256.324 263.809C256.655 260.192 258.774 255.738 263.591 254.009L260.897 258.874C260.801 259.048 260.762 259.247 260.786 259.446C260.797 259.512 261.687 266.136 268.66 266.941Z" fill="#C4C9D6"/>
<path d="M276.238 242.37V251.543L266.988 250.947L268.471 242.37H276.238Z" fill="#727C93"/>
<path d="M262.1 296.211C264.082 293.475 274.786 279.191 292.696 264.299C292.985 264.058 293.103 263.667 292.995 263.306L285.22 237.301C285.072 236.803 284.545 236.519 284.049 236.669C283.551 236.817 283.267 237.343 283.416 237.841L291.014 263.251C288.852 265.059 286.802 266.857 284.854 268.628C285.335 267.414 285.607 266.133 285.625 264.805C285.736 256.843 279.958 252.998 278.124 251.979V241.43C278.124 241.423 278.12 241.418 278.12 241.411C278.12 241.404 278.122 241.398 278.122 241.393L277.36 222.301C280.631 214.682 281.072 203.371 281.13 200.258C281.436 200.205 281.752 200.154 282.055 200.099C283.751 199.796 285.403 199.445 287.035 199.072C287.151 199.048 287.252 199.027 287.331 199.011C290.244 200 320.619 211.112 334.463 248.111C348.217 284.872 308.511 320.548 304.457 324.061C300.771 323.366 273.942 317.641 262.1 296.211Z" fill="white"/>
<path d="M306.714 336.833C310.16 335.894 323.66 331.615 331.123 320.588V325.063C331.123 325.413 331.315 325.733 331.626 325.897C331.931 326.06 332.307 326.038 332.597 325.841C332.92 325.619 339.593 321.013 342.734 316.326L343.31 318.281C343.412 318.632 343.71 318.891 344.072 318.947C344.44 318.998 344.797 318.839 344.997 318.535C345.175 318.267 348.939 312.545 350.6 308.057C354.185 311.74 364.875 325.422 351.551 346.927C337.39 369.782 311.052 364.907 306.423 363.842C306.784 356.008 306.77 344.22 306.714 336.833Z" fill="#F6A226"/>
<path d="M184.043 238.456L188.617 226.785H205.898L210.453 239.544L195.684 257.947C193.936 255.386 189.159 248.162 184.043 238.456Z" fill="#9E00FF"/>
<path d="M169.652 200.742C174.959 201.66 180.439 202.409 186.025 203.002L174.461 217.166C172.495 211.833 170.816 206.297 169.652 200.742Z" fill="#C4C9D6"/>
<path d="M175.227 219.206L178.287 215.459L186.9 226.012L182.892 236.238C180.247 231.069 177.573 225.294 175.227 219.206Z" fill="#C4C9D6"/>
<path d="M219.605 228.143L211.839 237.821L207.634 226.036L214.248 218.184L219.605 228.143Z" fill="#C4C9D6"/>
<path d="M150.618 293.357L149.542 297.553C148.872 297.631 147.444 297.527 145.945 295.671C144.508 293.892 145.462 276.1 147.218 259.841C149.19 256.865 152.383 256.106 154.739 255.998C158.76 255.825 162.572 257.435 163.796 259.041C166.044 261.987 165.45 293.623 164.657 296.214C164.399 297.006 162.727 297.405 161.324 297.492L160.721 293.567C160.648 293.096 160.242 292.719 159.758 292.77L155.37 292.92L151.597 292.651C151.143 292.62 150.731 292.914 150.618 293.357Z" fill="white"/>
<path d="M157.48 198.247C160.776 199.038 164.173 199.751 167.655 200.387C168.948 206.814 170.934 213.23 173.265 219.345C173.284 219.405 173.301 219.463 173.333 219.517C176.003 226.498 179.108 233.08 182.12 238.83C182.149 238.922 182.194 239.002 182.251 239.08C187.816 249.673 193.007 257.379 194.459 259.479L191.648 262.981L173.52 257.736C173.39 256.976 173.083 255.637 172.415 254.103C172.404 254.077 172.391 254.05 172.38 254.024C172.286 253.811 172.186 253.594 172.076 253.374C171.988 253.193 171.896 253.019 171.803 252.847C171.785 252.815 171.769 252.783 171.751 252.751C171.591 252.462 171.426 252.185 171.254 251.917C171.211 251.849 171.168 251.781 171.122 251.712C171.061 251.621 170.999 251.53 170.937 251.442C168.846 248.415 165.148 245.427 158.614 244.859L166.192 232.251C166.362 231.965 166.371 231.61 166.213 231.317C166.053 231.023 165.752 230.836 165.419 230.825C161.976 230.695 158.406 230.528 155.056 230.341C155.045 230.341 155.034 230.334 155.023 230.334C155.016 230.334 155.01 230.338 155.003 230.338C152.116 230.177 149.396 230.001 147.07 229.819C147.066 229.819 147.064 229.817 147.059 229.817C147.052 229.817 147.045 229.817 147.039 229.817C143.654 229.552 141.104 229.274 140.093 229.015C140.418 226.089 143.596 211.756 145.72 202.556C151.474 198.975 155.075 198.067 155.846 197.903C156.39 198.02 156.935 198.132 157.48 198.247Z" fill="white"/>
<path d="M304.705 329.916L299.265 338.443C293.854 336.451 258.54 322.73 247.732 300.285C248.599 298.984 251.441 294.922 255.499 291.169L260.22 296.688C272.168 318.869 299.411 324.998 303.926 325.873L304.705 329.916Z" fill="white"/>
<path d="M138.239 229.863C138.385 230.339 138.589 230.974 146.076 231.638L145.746 247.34C142.187 248.051 140.15 250.237 139.118 251.781C139.992 246.244 140.768 241.745 141.395 238.735C141.502 238.226 141.175 237.727 140.666 237.622C140.157 237.511 139.658 237.841 139.552 238.351C138.794 241.996 137.74 248.384 136.524 256.471C134.882 256.424 133.364 256.639 131.832 256.978C130.032 257.394 128.304 258.033 126.658 258.813C125.032 259.634 123.473 260.567 122.037 261.66C121.298 262.175 120.64 262.799 119.943 263.36C119.279 263.964 118.645 264.6 117.999 265.216C118.699 264.657 119.383 264.082 120.091 263.543C120.833 263.047 121.531 262.492 122.303 262.05C123.805 261.102 125.403 260.328 127.033 259.678C128.68 259.069 130.373 258.607 132.09 258.367C133.471 258.173 134.931 258.118 136.258 258.255C133.917 273.981 131.03 295.504 128.477 315.839C122.978 309.838 102.425 286.411 101.809 270.83C101.032 251.141 116.748 228.401 130.444 214.911C135.394 210.034 139.77 206.539 143.44 204.037C140.763 215.7 137.898 228.754 138.239 229.863Z" fill="white"/>
<path d="M155.961 232.291C158.25 232.409 160.826 232.527 163.752 232.642L156.286 245.063C156.173 245.065 156.062 245.067 155.961 245.072V232.291Z" fill="white"/>
<path d="M192.833 264.952C209.287 263.928 243.479 252.297 244.182 248.431C244.407 247.188 243.984 245.436 243.448 243.218C242.658 239.948 241.676 235.879 242.243 231.617C242.648 228.579 248.821 229.145 255.354 229.747C259.281 230.106 263.287 230.473 266.736 230.173V241.346L264.981 251.5L264.869 251.704C259.078 252.892 255.009 257.529 254.45 263.638C253.914 269.486 256.88 274.483 262.003 276.368C264.354 277.233 266.822 277.657 269.253 277.657C271.986 277.657 274.668 277.108 277.089 276.058C268.321 284.905 262.794 292.091 260.929 294.621L256.299 289.211C256.136 289.019 255.901 288.901 255.649 288.883C255.4 288.876 255.15 288.95 254.96 289.118C249.454 293.983 246 299.484 245.856 299.715C245.688 299.984 245.667 300.32 245.8 300.61C257.496 325.838 297.642 339.89 299.347 340.476C299.448 340.51 299.55 340.527 299.653 340.527C299.968 340.527 300.27 340.369 300.446 340.091L304.8 333.268C304.81 334.089 304.818 334.94 304.826 335.82C304.771 335.982 304.742 336.155 304.783 336.334C304.793 336.373 304.818 336.402 304.832 336.44C304.937 349.34 304.836 367.343 303.883 370.677C302.612 375.128 300.353 376.916 294.586 378.032C288.917 379.129 251.129 381.724 230.84 382.207C212.287 382.62 195.702 369.56 193.561 367.805C185.562 333.728 191.99 272.527 192.833 264.952Z" fill="white"/>
<path d="M130.077 317.896C132.429 299.048 135.097 278.908 137.4 263.139C136.443 275.515 135.112 295.965 136.427 299.732C138.114 304.568 145.567 307.911 147.794 308.815V312.425C147.794 312.945 148.216 313.367 148.736 313.367H159.913C160.433 313.367 160.854 312.945 160.854 312.425V309.231C163.65 308.765 172.412 306.777 173.596 300.011C174.747 293.431 173.877 266.118 173.656 259.738L190.96 264.745C190.106 272.431 183.688 333.658 191.686 368.047C190.18 369.617 183.435 376.202 174.264 378.468C166.933 380.281 146.197 378.909 133.698 377.117C133.683 377.116 133.669 377.107 133.653 377.106C133.648 377.106 133.644 377.109 133.638 377.109C128.54 376.376 124.815 375.573 123.964 374.89C123.648 372.345 126.475 346.777 130.045 318.143C130.065 318.062 130.08 317.981 130.077 317.896Z" fill="white"/>
<path d="M171.729 258.564C171.788 260.158 172.961 292.715 171.74 299.685C170.603 306.191 159.916 307.467 159.807 307.478C159.332 307.532 158.971 307.936 158.971 308.415V311.482H155.991L156.524 294.764L158.988 294.68L159.59 298.594C159.659 299.043 160.039 299.379 160.494 299.393C161.015 299.408 165.58 299.455 166.449 296.799C167.036 295.007 168.304 261.846 165.294 257.901C163.5 255.549 158.914 253.911 154.653 254.119C150.624 254.303 147.375 256.044 145.509 259.02C145.432 259.141 145.385 259.277 145.37 259.418C144.754 265.092 141.818 293.559 144.48 296.856C147.444 300.526 150.557 299.254 150.686 299.196C150.955 299.081 151.155 298.848 151.228 298.563L152.248 294.585L154.398 294.739L154.095 311.484H149.677V308.173C149.677 307.779 149.43 307.426 149.06 307.29C148.968 307.255 139.858 303.856 138.204 299.114C136.77 295.003 139.036 265.269 140.047 253.959C140.345 253.276 142.125 249.674 146.79 249.077C147.253 249.018 147.602 248.63 147.612 248.163L147.956 231.795C149.669 231.927 151.696 232.06 154.078 232.192V246.078C154.078 246.348 154.194 246.605 154.397 246.783C154.599 246.962 154.866 247.044 155.137 247.012C155.721 246.94 169.566 245.37 171.729 258.564Z" fill="#727C93"/>
<g opacity="0.25">
<path d="M342.755 345.357C354.053 331.382 353.647 311.887 353.647 311.886C357.712 318.099 361.961 330.125 351.552 346.927C337.39 369.782 311.052 364.907 306.423 363.842C306.52 361.738 306.59 359.344 306.638 356.831C311.336 357.129 332.729 357.757 342.755 345.357Z" fill="#0D0438"/>
</g>
<g opacity="0.25">
<path d="M325.282 230.016C328.726 235.215 331.882 241.211 334.463 248.108C348.217 284.869 308.511 320.545 304.457 324.058C302.782 323.743 296.32 322.381 288.662 318.983C288.813 318.825 324.843 281.227 327.935 267.585C330.555 256.016 326.326 236.358 325.282 230.016Z" fill="#0D0438"/>
</g>
<g opacity="0.25">
<path d="M282.647 322.36C293.582 327.281 304.135 326.959 304.135 326.959L304.705 329.918L299.265 338.445C296.67 337.489 287.191 333.829 276.84 327.808C279.325 326.305 282.647 322.36 282.647 322.36Z" fill="#0D0438"/>
</g>
<g opacity="0.25">
<path d="M280.735 366.926C288.206 362.005 284.512 334.142 284.512 334.142H284.513C292.549 338.099 298.705 340.253 299.348 340.474C299.45 340.509 299.552 340.526 299.655 340.526C299.97 340.526 300.272 340.368 300.448 340.09L304.802 333.267C304.812 334.088 304.82 334.939 304.828 335.819C304.773 335.981 304.744 336.154 304.785 336.333C304.795 336.372 304.82 336.401 304.834 336.439C304.939 349.338 304.838 367.342 303.885 370.676C302.614 375.127 300.355 376.915 294.588 378.031C288.918 379.128 251.131 381.723 230.842 382.206C212.289 382.619 195.704 369.558 193.563 367.804C193.014 365.466 192.536 362.997 192.116 360.43C194.435 361.742 206.223 368.006 224.606 370.936C245.199 374.217 273.264 371.848 280.735 366.926Z" fill="#0D0438"/>
</g>
<g opacity="0.25">
<path d="M280.005 411.22C299.577 408.791 303.249 401.398 303.839 397.726C305.991 400.694 307.524 404.383 306.721 408.488C304.823 418.195 285.108 421.886 267.588 421.218C251.968 420.616 238.697 419.48 234.486 411.627C230.677 404.522 231.488 387.971 231.742 384.07C234.404 384.001 237.346 383.897 240.456 383.768C240.472 387.476 240.663 396.844 242.149 400.441C244.023 404.97 253.581 414.501 280.005 411.22Z" fill="#0D0438"/>
</g>
<g opacity="0.25">
<path d="M266.048 235.809C266.048 235.809 247.752 232.588 246.657 233.925C245.565 235.262 243.822 244.796 243.822 244.796C243.711 244.301 243.583 243.775 243.45 243.22C242.66 239.95 241.678 235.881 242.245 231.619C242.65 228.581 248.823 229.147 255.356 229.749C259.283 230.108 263.288 230.475 266.738 230.175V234.259C266.576 235.097 266.354 235.73 266.048 235.809Z" fill="#021168"/>
</g>
<g opacity="0.25">
<path d="M170.117 368.324C181.232 366.806 190.065 359.539 190.066 359.538C190.524 362.512 191.06 365.36 191.686 368.046C190.18 369.616 183.435 376.201 174.264 378.467C166.933 380.28 146.197 378.908 133.698 377.116C133.683 377.115 133.669 377.106 133.653 377.105C133.648 377.105 133.644 377.108 133.638 377.108C128.54 376.375 124.815 375.572 123.964 374.889C123.856 374.025 124.112 370.499 124.636 365.105C129.555 365.765 159.913 369.718 170.117 368.324Z" fill="#021168"/>
</g>
<g opacity="0.25">
<path d="M156.633 198.068H156.638C156.918 198.128 157.199 198.188 157.479 198.247C160.775 199.038 164.172 199.751 167.654 200.387C167.854 201.382 168.077 202.376 168.309 203.369C158.849 200.426 156.633 198.068 156.633 198.068Z" fill="#021168"/>
</g>
<g opacity="0.25">
<path d="M182.808 206.94C177.807 205.95 173.728 204.952 170.408 203.997C170.143 202.914 169.88 201.83 169.652 200.742C174.959 201.66 180.439 202.409 186.025 203.002L182.808 206.94Z" fill="#0D0438"/>
</g>
<g opacity="0.25">
<path d="M241.086 204.389C250.622 203.947 259.703 203.177 267.967 202.173C262.388 204.112 251.157 207.553 237.009 209.47L241.086 204.389Z" fill="#0D0438"/>
</g>
<g opacity="0.25">
<path d="M238.58 204.5L234.32 209.808C227.516 210.612 220.113 211.03 212.393 210.762L209.075 204.594C213.551 204.751 218.028 204.827 222.468 204.827C227.916 204.826 233.308 204.712 238.58 204.5Z" fill="#0D0438"/>
</g>
<g opacity="0.25">
<path d="M184.911 207.346L188.272 203.229C194.401 203.83 200.639 204.251 206.89 204.507L210.205 210.669C207.028 210.506 203.806 210.23 200.552 209.803C194.581 209.02 189.405 208.19 184.911 207.346Z" fill="#0D0438"/>
</g>
<g opacity="0.25">
<path d="M275.515 221.916C274.479 224.23 273.156 226.082 271.466 227.026C267.917 229.01 261.335 228.406 255.525 227.872C248.065 227.189 241.02 226.541 240.375 231.37C239.761 235.98 240.833 240.421 241.616 243.663C242.066 245.518 242.454 247.13 242.342 248.005C240.377 250.646 211.179 261.479 194.06 262.981L197.784 258.341C202.091 257.198 231.392 248.646 233.656 243.889C236.085 238.785 232.199 228.942 238.58 224.081C244.961 219.219 261.599 222.015 266.459 221.179C271.319 220.343 278.121 204.087 278.121 204.087L279.088 203.731C278.79 208.515 277.955 216.307 275.601 221.71C275.565 221.775 275.535 221.842 275.515 221.916Z" fill="#0D0438"/>
</g>
<g opacity="0.25">
<path d="M156.288 245.063C156.175 245.065 156.064 245.067 155.963 245.072V232.291C158.252 232.409 160.828 232.527 163.754 232.642L156.288 245.063Z" fill="#021168"/>
</g>
<g opacity="0.25">
<path d="M166.836 230.441L166.563 231.794C166.563 231.794 166.017 239.97 166.563 242.978C167.11 245.985 192.713 261.002 192.713 261.002C192.81 261.132 192.88 261.255 192.934 261.375L191.643 262.982L173.514 257.737C173.384 256.977 173.077 255.638 172.409 254.104C172.398 254.078 172.386 254.052 172.374 254.025C172.28 253.812 172.18 253.595 172.071 253.375C171.982 253.195 171.891 253.02 171.798 252.848C171.78 252.816 171.763 252.784 171.745 252.752C171.585 252.464 171.42 252.186 171.249 251.919C171.206 251.851 171.163 251.783 171.117 251.713C171.056 251.622 170.993 251.532 170.931 251.443C168.84 248.417 165.142 245.428 158.608 244.86L166.186 232.252C166.357 231.966 166.365 231.611 166.207 231.318C166.047 231.024 165.746 230.837 165.414 230.826C161.971 230.696 158.4 230.529 155.05 230.342C155.039 230.342 155.028 230.335 155.017 230.335C155.01 230.335 155.004 230.339 154.998 230.339C152.111 230.178 149.39 230.002 147.065 229.821C147.061 229.821 147.058 229.818 147.054 229.818C147.047 229.818 147.04 229.818 147.033 229.818C143.648 229.553 141.098 229.276 140.087 229.016C140.191 228.076 140.592 225.952 141.156 223.202C144.379 223.894 156.164 226.371 161.642 226.787C168.022 227.27 166.836 230.441 166.836 230.441Z" fill="#0D0438"/>
</g>
<g opacity="0.25">
<path d="M155.961 260.476C152.105 259.819 148.701 260.521 147.1 260.963C147.14 260.589 147.179 260.214 147.219 259.842C149.191 256.866 152.384 256.107 154.74 255.999C158.761 255.826 162.573 257.436 163.797 259.042C164.402 259.835 164.799 262.717 165.045 266.543C163.988 265.235 160.573 261.263 155.961 260.476Z" fill="#021168"/>
</g>
<g opacity="0.25">
<path d="M125.198 249.63C128.114 244.891 138.44 227.559 138.44 227.559C138.243 228.805 138.164 229.62 138.239 229.862C138.385 230.338 138.589 230.973 146.076 231.638L145.746 247.339C142.187 248.051 140.15 250.236 139.118 251.78C139.992 246.243 140.768 241.744 141.395 238.734C141.502 238.225 141.175 237.726 140.666 237.621C140.157 237.51 139.658 237.84 139.552 238.35C138.794 241.995 137.74 248.383 136.524 256.471C134.882 256.423 133.364 256.638 131.832 256.977C130.032 257.393 128.304 258.032 126.658 258.812C125.736 259.278 124.839 259.784 123.971 260.33C123.028 260.715 122.372 260.991 122.372 260.991C122.372 260.991 122.282 254.369 125.198 249.63Z" fill="#0D0438"/>
</g>
<g opacity="0.25">
<path d="M108.705 271.638C114.68 282.583 130.82 297.571 130.82 297.571C130.026 303.643 129.237 309.791 128.478 315.837C122.979 309.836 102.425 286.409 101.81 270.828C101.602 265.545 102.588 260.043 104.397 254.56C104.303 258.209 104.855 264.586 108.705 271.638Z" fill="#0D0438"/>
</g>
<g opacity="0.25">
<path d="M144.48 296.854C147.445 300.524 150.558 299.252 150.687 299.194C150.956 299.079 151.155 298.846 151.229 298.561L152.248 294.583L154.398 294.737L154.095 311.482H149.677V308.171C149.677 307.777 149.43 307.424 149.06 307.288C148.969 307.253 139.859 303.854 138.204 299.112C138.031 298.615 137.913 297.737 137.838 296.571C139.038 295.886 142.555 293.95 143.586 293.384C143.758 295.077 144.042 296.312 144.48 296.854Z" fill="#0D0438"/>
</g>
<g opacity="0.25">
<path d="M171.741 299.685C170.604 306.191 159.916 307.467 159.807 307.478C159.332 307.532 158.971 307.936 158.971 308.414V311.482H155.991L156.524 294.764L158.988 294.679L159.59 298.593C159.659 299.043 160.039 299.378 160.494 299.392C161.015 299.407 165.58 299.455 166.449 296.799C166.564 296.446 166.706 294.868 166.836 292.549L172.291 287.383C172.269 292.832 172.122 297.507 171.741 299.685Z" fill="#0D0438"/>
</g>
<g opacity="0.25">
<path d="M172.275 281.901L167.042 287.913C167.076 286.966 167.105 285.971 167.13 284.942L172.235 278.461C172.252 279.608 172.264 280.758 172.275 281.901Z" fill="#0D0438"/>
</g>
<g opacity="0.25">
<path d="M147.861 236.369L147.956 231.795C149.669 231.927 151.696 232.06 154.078 232.192V237.301C152.141 237.087 147.861 236.369 147.861 236.369Z" fill="#0D0438"/>
</g>
<g opacity="0.25">
<path d="M178.622 406.845C184.819 400.039 182.992 377.016 182.992 377.016C182.992 377.016 183.007 377.237 182.985 377.016C187.94 374.303 191.433 371.011 192.795 369.614C193.767 370.401 195.693 371.887 198.359 373.62C197.202 376.349 193.375 385.669 192.631 391.289C192.43 392.808 192.594 394.75 192.782 396.998C193.416 404.544 194.283 414.88 181.766 418.456C167.542 422.523 135.631 423.141 124.66 416.205C122.688 414.959 121.558 413.537 121.298 411.978C120.954 409.913 121.135 408.079 121.658 406.459C128.949 417.988 172.599 413.462 178.622 406.845Z" fill="#0D0438"/>
</g>
<path d="M304.727 327.371C305.261 327.371 305.782 327.185 306.199 326.84C306.674 326.446 317.931 317.038 327.517 302.549C340.381 283.106 343.833 263.887 337.503 246.969C322.456 206.751 289.453 196.256 288.056 195.829C287.677 195.714 287.272 195.697 286.885 195.783C286.259 195.922 223.501 209.422 156.349 194.686C156.075 194.626 155.792 194.617 155.513 194.658C155.074 194.723 144.546 196.457 128.164 212.595C113.317 227.219 97.7445 250.231 98.5626 270.957C99.3169 290.086 126.333 318.343 127.483 319.536C128.368 320.454 129.826 320.482 130.744 319.597C131.662 318.714 131.689 317.253 130.805 316.335C130.536 316.055 103.857 288.153 103.17 270.774C102.546 254.936 113.627 233.388 131.399 215.881C144.883 202.597 153.96 199.769 155.847 199.297C220.169 213.289 280.379 201.819 287.233 200.421C291.471 201.934 319.97 213.279 333.18 248.585C346.178 283.325 309.985 317.328 304.056 322.587C298.819 321.51 274.925 315.631 263.719 296.304C266.619 292.401 276.978 279.139 293.563 265.347C294.275 264.757 294.563 263.798 294.298 262.913L286.524 236.908C286.159 235.688 284.878 234.992 283.653 235.359C282.433 235.724 281.74 237.01 282.104 238.23L289.444 262.78C270.016 279.181 259.536 294.186 259.091 294.828C258.599 295.539 258.545 296.467 258.954 297.23C272.221 322.017 303.059 327.137 304.365 327.342C304.488 327.361 304.608 327.371 304.727 327.371Z" fill="#0D0438"/>
<path d="M299.653 341.508C300.295 341.508 300.912 341.185 301.273 340.619L307.32 331.141C307.583 330.726 307.68 330.225 307.586 329.743L306.614 324.7C306.413 323.658 305.403 322.974 304.363 323.175C303.321 323.377 302.638 324.385 302.84 325.426L303.667 329.718L298.864 337.247C291.697 334.536 259.371 321.339 248.862 300.363C249.887 298.875 252.222 295.691 255.423 292.589L259.53 297.39C260.221 298.197 261.434 298.29 262.24 297.6C263.047 296.91 263.141 295.696 262.451 294.89L257.044 288.572C256.709 288.18 256.232 287.939 255.717 287.904C255.207 287.867 254.697 288.04 254.311 288.382C248.698 293.341 245.171 298.958 245.022 299.195C244.678 299.746 244.637 300.433 244.91 301.021C256.782 326.623 297.307 340.81 299.026 341.403C299.233 341.473 299.444 341.508 299.653 341.508Z" fill="#0D0438"/>
<path d="M229.898 385.468C230.238 385.468 230.576 385.464 230.917 385.456C251.324 384.969 289.441 382.338 295.204 381.221C300.951 380.109 305.158 378.043 307.007 371.571C308.514 366.291 308.063 333.763 308.007 330.071C307.987 328.809 306.958 327.8 305.701 327.8C305.688 327.8 305.677 327.8 305.665 327.8C304.392 327.819 303.375 328.867 303.393 330.141C303.603 343.821 303.564 366.824 302.571 370.302C301.46 374.191 299.534 375.683 294.328 376.692C288.701 377.78 251.052 380.361 230.807 380.843C230.511 380.85 230.213 380.854 229.916 380.854C211.029 380.854 194.388 366.721 194.219 366.577C193.262 365.753 191.822 365.851 190.986 366.796C190.918 366.872 183.886 374.683 173.937 377.142C163.961 379.61 131.091 376.13 125.347 374.033C125.704 362.937 137.729 263.027 142.73 239.012C142.991 237.765 142.19 236.544 140.943 236.284C139.692 236.025 138.474 236.824 138.216 238.072C135.63 250.484 130.864 285.62 127.266 314.364C125.304 330.032 123.568 344.756 122.376 355.822C120.351 374.647 120.66 375.421 120.958 376.169C121.413 377.303 122.356 379.664 144.945 381.673C155.575 382.618 169.063 383.101 175.042 381.622C183.598 379.507 190.07 374.126 192.894 371.43C197.81 375.213 212.716 385.468 229.898 385.468Z" fill="#0D0438"/>
<path d="M191.987 265.983C192.014 265.983 192.042 265.983 192.068 265.982C203.02 265.518 218.407 260.746 224.515 258.715C229.724 256.983 234.601 255.136 238.246 253.513C244.291 250.824 244.948 249.699 245.146 248.607C245.408 247.161 244.965 245.32 244.402 242.99C243.631 239.799 242.671 235.828 243.216 231.748C243.498 229.644 250.021 230.243 255.264 230.724C261.791 231.322 268.538 231.943 272.863 229.526C281.848 224.503 282.116 202.013 282.117 199.464C282.117 198.403 281.257 197.542 280.197 197.542H280.195C279.135 197.542 278.275 198.402 278.274 199.463C278.268 205.761 276.949 222.837 270.987 226.17C267.703 228.005 261.281 227.415 255.615 226.895C247.673 226.165 240.172 225.478 239.404 231.239C238.765 236.032 239.863 240.574 240.663 243.892C240.989 245.24 241.351 246.742 241.38 247.558C237.959 250.361 212.661 259.646 196.306 261.746L242.078 204.715C242.742 203.887 242.61 202.678 241.782 202.013C240.954 201.349 239.744 201.482 239.081 202.309L190.488 262.857C190.015 263.445 189.932 264.255 190.271 264.927C190.6 265.578 191.264 265.983 191.987 265.983Z" fill="#0D0438"/>
<path d="M195.633 261.442C196.019 261.442 196.412 261.325 196.75 261.083C197.613 260.466 197.811 259.264 197.194 258.4C196.983 258.106 176.073 228.649 170.348 199.288C170.145 198.246 169.132 197.57 168.095 197.769C167.053 197.972 166.372 198.981 166.576 200.024C172.464 230.224 193.191 259.411 194.07 260.64C194.444 261.163 195.034 261.442 195.633 261.442Z" fill="#0D0438"/>
<path d="M192.713 370.246C192.86 370.246 193.01 370.23 193.16 370.193C194.193 369.947 194.83 368.911 194.584 367.879C186.017 331.936 193.814 264.96 193.895 264.289C194.005 263.354 193.423 262.477 192.52 262.215L174.359 256.96C173.647 253.704 170.833 245.665 160.231 244.063L167.028 232.754C167.377 232.172 167.394 231.448 167.071 230.85C166.748 230.252 166.132 229.869 165.454 229.843C155.652 229.47 144.814 228.804 141.194 228.227C141.826 224.342 144.364 212.753 146.764 202.378C147.004 201.343 146.359 200.311 145.325 200.071C144.287 199.83 143.259 200.476 143.019 201.511C136.785 228.466 137.121 229.561 137.3 230.149C137.741 231.592 138.037 232.565 162.059 233.554L155.348 244.721C154.996 245.307 154.982 246.037 155.311 246.636C155.641 247.235 156.265 247.615 156.948 247.632C169.718 247.947 170.716 258.183 170.752 258.619C170.819 259.414 171.368 260.093 172.135 260.317L189.893 265.455C188.704 276.193 182.767 334.879 190.845 368.769C191.055 369.653 191.844 370.246 192.713 370.246ZM141.044 229.423H141.037H141.044Z" fill="#0D0438"/>
<path d="M267.679 242.966H277.181C277.6 242.966 277.999 242.796 278.289 242.493C278.579 242.192 278.734 241.785 278.718 241.366L277.947 222.097C277.913 221.248 277.18 220.596 276.349 220.623C275.501 220.656 274.841 221.373 274.875 222.221L275.582 239.89H269.218V229.119C269.218 228.27 268.529 227.581 267.68 227.581C266.832 227.581 266.142 228.27 266.142 229.119V241.428C266.141 242.277 266.83 242.966 267.679 242.966Z" fill="#0D0438"/>
<path d="M277.181 254.085C277.571 254.085 277.946 253.937 278.232 253.669C278.543 253.379 278.719 252.973 278.719 252.547V241.428C278.719 240.579 278.03 239.89 277.181 239.89C276.332 239.89 275.643 240.579 275.643 241.428V250.906L267.688 250.393L269.193 241.689C269.337 240.851 268.777 240.057 267.941 239.912C267.107 239.768 266.309 240.328 266.164 241.165L264.367 251.556C264.293 251.986 264.405 252.427 264.675 252.771C264.946 253.113 265.348 253.325 265.783 253.353L277.081 254.081C277.114 254.084 277.148 254.085 277.181 254.085Z" fill="#0D0438"/>
<path d="M269.25 278.253C273.265 278.253 277.185 277.127 280.361 274.945C284.084 272.385 286.165 268.787 286.219 264.814C286.354 255.173 278.17 251.311 277.82 251.151C277.367 250.943 276.84 250.968 276.409 251.218C275.978 251.469 275.693 251.912 275.649 252.409L274.671 263.155C274.416 263.522 273.143 264.968 268.942 264.479C264.811 264.002 263.634 260.796 263.336 259.588L267.225 252.566C267.637 251.822 267.368 250.888 266.625 250.476C265.883 250.065 264.947 250.333 264.535 251.076L264.477 251.18C257.792 252.681 254.327 258.413 253.854 263.586C253.296 269.711 256.411 274.948 261.795 276.929C264.215 277.816 266.751 278.253 269.25 278.253ZM278.485 255.187C280.459 256.728 283.214 259.778 283.145 264.769C283.103 267.717 281.496 270.431 278.619 272.409C274.278 275.393 268.239 276.02 262.859 274.04C257.952 272.235 256.592 267.429 256.919 263.864C257.193 260.865 258.759 257.263 262.192 255.308L260.377 258.585C260.219 258.869 260.156 259.195 260.195 259.517C260.499 261.99 262.644 266.846 268.591 267.532C276.044 268.386 277.571 264.253 277.632 264.077C277.672 263.959 277.698 263.837 277.709 263.714L278.485 255.187Z" fill="#0D0438"/>
<path d="M211.519 241.262C211.691 241.262 211.866 241.233 212.036 241.172C212.836 240.886 213.252 240.007 212.967 239.207L208.012 225.326C207.795 224.715 207.215 224.306 206.565 224.306H187.977C187.345 224.306 186.776 224.693 186.546 225.282L181.568 237.981C181.258 238.771 181.649 239.663 182.438 239.974C183.229 240.287 184.12 239.893 184.43 239.104L189.025 227.382H205.482L210.073 240.242C210.296 240.87 210.888 241.262 211.519 241.262Z" fill="#0D0438"/>
<path d="M220.732 229.784C220.977 229.784 221.227 229.726 221.459 229.601C222.206 229.197 222.486 228.265 222.084 227.518L209.011 203.22C208.608 202.472 207.677 202.191 206.928 202.595C206.181 202.997 205.901 203.929 206.303 204.678L219.376 228.975C219.655 229.491 220.184 229.784 220.732 229.784Z" fill="#0D0438"/>
<path d="M174.139 220.587C174.584 220.587 175.027 220.394 175.33 220.021L188.986 203.296C189.522 202.638 189.425 201.669 188.766 201.132C188.109 200.597 187.14 200.693 186.603 201.35L172.948 218.075C172.411 218.732 172.509 219.702 173.167 220.239C173.453 220.473 173.798 220.587 174.139 220.587Z" fill="#0D0438"/>
<path d="M206.563 227.382C207 227.382 207.435 227.196 207.74 226.834L215.595 217.507C216.143 216.858 216.059 215.887 215.41 215.339C214.761 214.793 213.792 214.874 213.242 215.525L205.387 224.852C204.84 225.501 204.924 226.472 205.573 227.02C205.863 227.263 206.214 227.382 206.563 227.382Z" fill="#0D0438"/>
<path d="M187.977 227.382C188.319 227.382 188.663 227.268 188.949 227.035C189.606 226.498 189.704 225.53 189.168 224.871L179.478 212.998C178.94 212.34 177.974 212.242 177.315 212.779C176.658 213.315 176.559 214.284 177.096 214.942L186.785 226.816C187.089 227.189 187.531 227.382 187.977 227.382Z" fill="#0D0438"/>
<path d="M148.735 313.963H159.912C160.761 313.963 161.45 313.274 161.45 312.425V309.729C164.771 309.104 172.999 306.883 174.183 300.114C175.471 292.748 174.257 259.812 174.206 258.414C174.204 258.352 174.197 258.289 174.188 258.227C172.178 245.749 161.14 244.464 156.689 244.464C156.644 244.464 156.601 244.464 156.558 244.464V231.273C156.558 230.424 155.869 229.735 155.02 229.735C154.172 229.735 153.483 230.424 153.483 231.273V246.076C153.483 246.517 153.673 246.937 154.004 247.23C154.336 247.521 154.776 247.656 155.213 247.602C155.776 247.532 169.047 246.05 171.137 258.624C171.21 260.623 172.356 292.72 171.155 299.582C170.09 305.667 159.847 306.873 159.743 306.886C158.964 306.973 158.376 307.631 158.376 308.414V310.887H156.608L157.102 295.343L158.48 295.295L159.001 298.685C159.115 299.419 159.735 299.968 160.478 299.989C161.399 300.015 166.033 299.99 167.016 296.985C167.558 295.329 169.031 261.815 165.768 257.539C163.866 255.047 159.079 253.321 154.625 253.524C150.395 253.718 146.978 255.557 145.005 258.703C144.882 258.9 144.804 259.123 144.779 259.354C143.661 269.643 141.353 293.931 144.018 297.23C147.262 301.251 150.773 299.807 150.922 299.743C151.36 299.555 151.687 299.175 151.805 298.711L152.701 295.215L153.792 295.293L153.51 310.887H150.274V308.172C150.274 307.528 149.871 306.951 149.267 306.728C146.785 305.814 140.063 302.628 138.768 298.915C137.519 295.33 139.191 270.253 140.633 254.11C140.988 253.342 142.682 250.201 146.866 249.667C147.622 249.571 148.193 248.936 148.208 248.174L148.573 230.788C148.591 229.939 147.917 229.236 147.068 229.218C147.057 229.218 147.046 229.218 147.035 229.218C146.2 229.218 145.517 229.885 145.499 230.723L145.16 246.858C139.633 248.199 137.767 252.97 137.685 253.187C137.635 253.317 137.605 253.454 137.592 253.593C137.218 257.769 133.988 294.545 135.865 299.928C137.562 304.793 144.48 308.087 147.199 309.216V312.424C147.199 313.274 147.886 313.963 148.735 313.963ZM151.529 292.053C150.832 292.053 150.216 292.524 150.04 293.208L149.073 296.98C148.463 296.942 147.483 296.628 146.41 295.297C145.131 293.198 146.1 275.794 147.796 260.053C149.636 257.384 152.583 256.696 154.767 256.594C158.479 256.432 162.185 257.911 163.325 259.403C165.48 262.347 164.829 293.187 164.086 296.053C163.978 296.381 162.974 296.714 161.831 296.85L161.312 293.476C161.194 292.706 160.539 292.139 159.739 292.173L155.382 292.322L151.64 292.054C151.603 292.054 151.565 292.053 151.529 292.053Z" fill="#0D0438"/>
<path d="M137.711 255.168C129.957 254.926 122.891 259.54 117.997 265.215C122.139 262.106 127.068 259.715 132.275 259.372C133.799 259.276 135.43 259.296 136.879 259.706C139.889 260.165 140.695 255.812 137.711 255.168Z" fill="#0D0438"/>
<path d="M271.728 424.544C288.813 424.544 307.664 420.588 309.909 409.112C312.002 398.404 301.983 390.572 298.5 388.21V378.645C298.5 377.372 297.467 376.339 296.194 376.339C294.921 376.339 293.888 377.372 293.888 378.645V389.468C293.888 390.284 294.32 391.042 295.025 391.456C295.144 391.527 307.225 398.8 305.381 408.226C303.715 416.749 285.131 420.527 267.642 419.852C252.449 419.269 239.559 418.196 235.691 410.982C232.267 404.596 232.705 388.864 233.161 383.341C233.267 382.071 232.324 380.957 231.054 380.853C229.778 380.748 228.67 381.692 228.566 382.961C228.494 383.828 226.863 404.28 231.626 413.163C236.658 422.547 250.237 423.801 267.466 424.464C268.865 424.515 270.292 424.543 271.728 424.544Z" fill="#0D0438"/>
<path d="M296.657 387.209C286.981 386.416 277.189 389.424 269.213 394.815C273.416 392.892 277.914 391.55 282.497 391.038C286.911 390.544 291.434 390.637 295.728 391.727C299.012 392.611 300.032 387.704 296.657 387.209Z" fill="#0D0438"/>
<path d="M154.689 424.728C165.245 424.728 175.779 423.545 182.656 421.578C197.74 417.268 196.662 404.409 196.018 396.727C195.851 394.752 195.696 392.885 195.85 391.714C196.649 385.673 201.61 374.271 201.66 374.158C202.17 372.99 201.638 371.631 200.471 371.12C199.301 370.61 197.945 371.144 197.435 372.309C197.22 372.8 192.162 384.422 191.278 391.11C191.058 392.776 191.227 394.786 191.422 397.113C192.218 406.611 191.985 414.115 181.39 417.143C167.718 421.05 135.888 421.689 125.387 415.05C123.759 414.021 122.836 412.911 122.643 411.752C120.984 401.795 133.528 397.595 133.655 397.555C134.575 397.257 135.21 396.418 135.246 395.451L135.922 378.137C135.972 376.864 134.981 375.792 133.708 375.742C132.409 375.696 131.363 376.685 131.313 377.957L130.696 393.734C124.882 396.138 116.404 402.379 118.092 412.511C118.511 415.022 120.136 417.189 122.923 418.95C129.378 423.032 142.05 424.728 154.689 424.728Z" fill="#0D0438"/>
<path d="M133.302 397.64C139.61 396.432 146.195 396.428 152.569 397.302C154.736 397.61 156.895 397.999 159.015 398.565C161.874 399.241 164.637 400.27 167.385 401.377C159.621 396.82 150.812 394.128 141.846 393.27C138.747 392.986 135.718 392.847 132.584 393.083C129.332 393.486 130.073 398.257 133.302 397.64Z" fill="#0D0438"/>
<path d="M317.475 368.297C319.252 368.297 321.152 368.21 323.138 367.996C336.589 366.542 347.37 359.847 354.314 348.638C371.211 321.366 351.84 304.743 351.643 304.578C351.039 304.074 350.221 303.913 349.472 304.15C348.722 304.388 348.145 304.99 347.941 305.748C347.429 307.639 346.125 310.245 344.852 312.511C344.448 311.967 343.816 311.615 343.113 311.58C342.123 311.522 341.23 312.109 340.861 313.018C339.913 315.361 336.968 318.226 334.37 320.396V317.165C334.37 316.102 333.642 315.175 332.609 314.924C331.581 314.674 330.505 315.161 330.017 316.107C323.075 329.54 305.354 333.834 305.177 333.875C303.937 334.165 303.168 335.406 303.456 336.646C303.746 337.886 304.981 338.655 306.222 338.369C306.909 338.209 320.718 334.889 329.757 324.576V325.064C329.757 325.92 330.231 326.706 330.989 327.104C331.744 327.504 332.661 327.451 333.367 326.967C334.074 326.481 338.846 323.15 342.237 319.207C342.586 319.787 343.18 320.193 343.869 320.297C344.759 320.436 345.639 320.036 346.134 319.287C346.29 319.054 349.118 314.754 351.017 310.596C355.027 315.591 361.713 327.935 350.391 346.208C335.484 370.27 307.269 362.686 306.075 362.352C304.848 362.009 303.577 362.723 303.233 363.947C302.888 365.173 303.599 366.444 304.823 366.791C305.091 366.866 310.252 368.297 317.475 368.297Z" fill="#0D0438"/>
<path d="M55.9456 72.5756C59.1196 67.3801 60.685 61.1445 60.0153 54.6217C58.3902 38.7871 44.2385 27.2686 28.4077 28.8941C12.5768 30.5196 1.0611 44.6746 2.6862 60.5092C4.3113 76.3438 18.463 87.8623 34.2938 86.2368C38.6977 85.7847 42.7646 84.3603 46.3101 82.2036L59.6451 85.1952L55.9456 72.5756Z" fill="white"/>
<g opacity="0.5">
<path d="M28.9751 34.4084C43.7632 32.8897 57.0829 42.8423 60.0974 57.0667C60.1015 56.05 60.0572 55.0251 59.9518 53.9918C58.3267 38.1572 44.175 26.6388 28.3442 28.2642C12.5133 29.8897 0.997604 44.0448 2.6227 59.8794C2.72947 60.9168 2.89309 61.9362 3.10385 62.9334C3.1607 48.3872 14.1828 35.927 28.9751 34.4084Z" fill="white"/>
</g>
<path d="M31.3286 88.9235C32.3949 88.9235 33.4709 88.8694 34.5538 88.7584C38.8856 88.3132 42.9761 87.015 46.7324 84.8944L59.0925 87.6669C59.9689 87.8639 60.8826 87.5823 61.4955 86.9277C62.1098 86.273 62.3316 85.3424 62.0779 84.4811L58.6863 72.9141C61.8741 67.254 63.2052 60.8658 62.5369 54.3625C60.7717 37.1632 45.343 24.6059 28.1491 26.3728C10.9538 28.1384 -1.60047 43.568 0.164673 60.7688C1.82027 76.8849 15.4686 88.9235 31.3286 88.9235ZM46.3122 79.6671C45.8505 79.6671 45.3943 79.7933 44.9949 80.036C41.6449 82.0734 37.9593 83.3106 34.0366 83.7142C19.6256 85.1912 6.68862 74.6686 5.20912 60.25C3.72961 45.8315 14.2526 32.897 28.6677 31.4157C43.0773 29.9345 56.0156 40.4613 57.4952 54.8798C58.0872 60.6481 56.8032 66.3109 53.7846 71.254C53.4116 71.8642 53.3146 72.6034 53.5156 73.29L56.0046 81.7794L46.8669 79.7295C46.6824 79.6879 46.498 79.6671 46.3122 79.6671Z" fill="#0D0438"/>
<g opacity="0.3">
<path d="M56.1079 72.3002C48.2153 78.9769 37.343 81.9019 26.5455 79.214C14.5708 76.2335 5.74783 67.113 2.57528 56.0439C2.49902 57.5113 2.53369 59.0037 2.6876 60.5113C4.3127 76.3459 18.4644 87.8643 34.2952 86.2388C38.6991 85.7867 42.766 84.3623 46.3115 82.2056L59.6465 85.1973L55.947 72.5789C56.0011 72.486 56.0524 72.3917 56.1079 72.3002Z" fill="#0D0438"/>
</g>
<path d="M40.5659 49.472C38.0728 46.9783 34.0294 47.4249 31.5349 49.9186L31.1467 50.307L30.7584 49.9186C28.2653 47.4249 24.222 46.9769 21.7275 49.472C19.2344 51.9657 19.2344 56.01 21.7275 58.5051L22.1157 58.8935L29.9556 66.7352C30.6128 67.3926 31.6791 67.3926 32.3364 66.7352L40.1762 58.8935L40.5645 58.5051C43.059 56.01 43.059 51.9657 40.5659 49.472Z" fill="#9E00FF"/>
</g>
<defs>
<clipPath id="clip0_133_6080">
<rect width="369" height="436" fill="white" transform="matrix(-1 0 0 1 369 0)"/>
</clipPath>
</defs>
</svg>
