<svg width="12" height="14" viewBox="0 0 12 14" fill="none" xmlns="http://www.w3.org/2000/svg">
<path d="M6.30975 1.00353C6.26911 0.962789 6.22083 0.930464 6.16768 0.908409C6.11453 0.886353 6.05755 0.875 6 0.875C5.94245 0.875 5.88547 0.886353 5.83232 0.908409C5.77917 0.930464 5.73089 0.962789 5.69025 1.00353L0.440251 6.25353C0.399649 6.29424 0.367468 6.34254 0.345548 6.39569C0.323628 6.44884 0.312398 6.50579 0.312501 6.56328V12.6883C0.312501 12.8043 0.358594 12.9156 0.440641 12.9976C0.522689 13.0797 0.633968 13.1258 0.750001 13.1258H4.6875C4.80353 13.1258 4.91481 13.0797 4.99686 12.9976C5.07891 12.9156 5.125 12.8043 5.125 12.6883V9.18828H6.875V12.6883C6.875 12.8043 6.92109 12.9156 7.00314 12.9976C7.08519 13.0797 7.19647 13.1258 7.3125 13.1258H11.25C11.366 13.1258 11.4773 13.0797 11.5594 12.9976C11.6414 12.9156 11.6875 12.8043 11.6875 12.6883V6.56328C11.6876 6.50579 11.6764 6.44884 11.6545 6.39569C11.6325 6.34254 11.6004 6.29424 11.5598 6.25353L10.375 5.06966C10.457 5.1517 9.91744 4.6121 10.375 5.06966C10.5379 5.2324 10.293 4.98761 10.375 5.06966L8.625 3.31966C8.48192 3.17652 8.50897 3.31966 8.625 3.31966C8.50926 3.20387 8.54295 3.4017 8.625 3.31966L6.30975 1.00353ZM1.1875 12.2508V6.74441L6 1.93191L10.8125 6.74441V12.2508H7.75V8.75078C7.75 8.63475 7.70391 8.52347 7.62186 8.44142C7.53981 8.35938 7.42853 8.31328 7.3125 8.31328H4.6875C4.57147 8.31328 4.46019 8.35938 4.37814 8.44142C4.29609 8.52347 4.25 8.63475 4.25 8.75078V12.2508H1.1875Z" fill="black"/>
</svg>
