<svg width="40" height="40" viewBox="0 0 40 40" fill="none" xmlns="http://www.w3.org/2000/svg">
<g clip-path="url(#clip0_194_9420)">
<path d="M30.0007 13.333L8.33398 20.833L15.834 23.333M30.0007 13.333L15.834 23.333M30.0007 13.333L23.334 30.833L15.834 23.333" stroke="#5531D2" stroke-width="1.5" stroke-linecap="round" stroke-linejoin="round"/>
<path d="M20.0007 36.6663C29.2057 36.6663 36.6673 29.2047 36.6673 19.9997C36.6673 10.7947 29.2057 3.33301 20.0007 3.33301C10.7957 3.33301 3.33398 10.7947 3.33398 19.9997C3.33398 29.2047 10.7957 36.6663 20.0007 36.6663Z" stroke="#5531D2" stroke-width="1.5" stroke-linecap="round" stroke-linejoin="round"/>
<g clip-path="url(#clip1_194_9420)">
<path d="M19.9375 39.998C30.9658 39.998 39.9375 31.0264 39.9375 19.998C39.9375 8.96971 30.9658 -0.00195312 19.9375 -0.00195312C8.90917 -0.00195312 -0.0625 8.96971 -0.0625 19.998C-0.0625 31.0264 8.90917 39.998 19.9375 39.998ZM19.9375 2.49805C29.5875 2.49805 37.4375 10.348 37.4375 19.998C37.4375 29.648 29.5875 37.498 19.9375 37.498C10.2875 37.498 2.4375 29.648 2.4375 19.998C2.4375 10.348 10.2875 2.49805 19.9375 2.49805Z" fill="white"/>
<path d="M19.9375 2.49805C29.5875 2.49805 37.4375 10.348 37.4375 19.998C37.4375 29.648 29.5875 37.498 19.9375 37.498C10.2875 37.498 2.4375 29.648 2.4375 19.998C2.4375 10.348 10.2875 2.49805 19.9375 2.49805Z" fill="white"/>
<g clip-path="url(#clip2_194_9420)">
<path d="M7.90268 19.6332L13.6086 22.477C13.8293 22.5858 14.0899 22.5781 14.3009 22.4546L19.3798 19.502L16.3056 22.2261C16.1491 22.3652 16.0596 22.5635 16.0596 22.7725V29.4079C16.0596 30.1079 16.9531 30.4025 17.3721 29.8464L19.8386 26.5671L25.9384 30.0408C26.3661 30.2868 26.9145 30.0399 27.0136 29.5508L30.818 10.5925C30.9317 10.0228 30.3649 9.55807 29.838 9.77001L7.96295 18.3013C7.37573 18.5307 7.33782 19.3522 7.90268 19.6332ZM29.1263 11.6133L25.7828 28.2743L20.003 24.9824C19.688 24.8025 19.2825 24.8822 19.0589 25.1778L17.518 27.2263V23.1002L25.8314 15.7346C26.4896 15.1522 25.7332 14.1168 24.9817 14.5582L13.9081 20.9963L10.027 19.0625L29.1263 11.6133Z" fill="#5531D2"/>
</g>
</g>
</g>
<defs>
<clipPath id="clip0_194_9420">
<rect width="40" height="40" fill="white"/>
</clipPath>
<clipPath id="clip1_194_9420">
<rect width="40" height="40" fill="white" transform="translate(-0.0625 -0.00195312)"/>
</clipPath>
<clipPath id="clip2_194_9420">
<rect width="23.3333" height="23.3333" fill="white" transform="translate(7.5 8.74805)"/>
</clipPath>
</defs>
</svg>
