<svg width="40" height="40" viewBox="0 0 40 40" fill="none" xmlns="http://www.w3.org/2000/svg">
<g clip-path="url(#clip0_194_9422)">
<path d="M19.8935 -0.00195312H19.9035C30.9095 -0.00195312 39.8595 8.97055 39.8595 19.998C39.8595 31.0255 30.9095 39.998 19.9035 39.998C15.8439 39.998 12.0788 38.788 8.92245 36.693L1.24994 39.1505L3.73758 31.7205C1.34475 28.428 -0.0625 24.373 -0.0625 19.998C-0.0625 8.96805 8.88752 -0.00195312 19.8935 -0.00195312Z" fill="white"/>
<path d="M13.025 23.8425C15.3264 26.5935 18.0968 28.7596 21.2589 30.2922C22.4628 30.8628 24.0728 31.5397 25.8665 31.6557C25.9777 31.6605 26.0841 31.6654 26.1953 31.6654C27.3992 31.6654 28.3662 31.2496 29.1543 30.3938C29.1591 30.3889 29.1688 30.3793 29.1736 30.3696C29.4541 30.0312 29.7732 29.7266 30.1068 29.4026C30.334 29.185 30.5661 28.9578 30.7885 28.7257C31.8183 27.6524 31.8183 26.2889 30.7788 25.2494L27.873 22.3436C27.3799 21.8311 26.79 21.5604 26.1711 21.5604C25.5523 21.5604 24.9576 21.8311 24.4499 22.3388L22.719 24.0697C22.5595 23.9778 22.3951 23.8956 22.2404 23.8183C22.047 23.7216 21.8681 23.6297 21.7085 23.5282C20.1323 22.5274 18.7012 21.2219 17.3329 19.5442C16.6415 18.6691 16.1774 17.9342 15.8534 17.1848C16.3079 16.7738 16.7334 16.3435 17.1443 15.9229C17.2894 15.773 17.4393 15.6231 17.5892 15.4732C18.1113 14.951 18.3918 14.3467 18.3918 13.7326C18.3918 13.1186 18.1162 12.5142 17.5892 11.9921L16.1484 10.5513C15.9791 10.382 15.8196 10.2177 15.6552 10.0484C15.3361 9.71965 15.0025 9.38121 14.6737 9.07661C14.1757 8.58828 13.5907 8.33203 12.9718 8.33203C12.3578 8.33203 11.7679 8.58828 11.2506 9.08144L9.44231 10.8897C8.78476 11.5473 8.41248 12.345 8.33512 13.2685C8.24325 14.424 8.45599 15.6521 9.00717 17.1364C9.85328 19.433 11.1297 21.5652 13.025 23.8425ZM9.51484 13.37C9.57286 12.727 9.81944 12.1903 10.2836 11.7261L12.0822 9.92756C12.3626 9.6568 12.672 9.51659 12.9718 9.51659C13.2667 9.51659 13.5665 9.6568 13.8421 9.93723C14.166 10.237 14.4706 10.5513 14.7994 10.8849C14.9638 11.0541 15.133 11.2233 15.3022 11.3974L16.743 12.8382C17.0428 13.1379 17.1975 13.4425 17.1975 13.7423C17.1975 14.0421 17.0428 14.3467 16.743 14.6464C16.5932 14.7963 16.4433 14.951 16.2934 15.1009C15.8438 15.5554 15.4231 15.9857 14.959 16.3967C14.9493 16.4064 14.9445 16.4112 14.9348 16.4209C14.5335 16.8222 14.5963 17.2041 14.693 17.4942C14.6979 17.5087 14.7027 17.5184 14.7075 17.5329C15.0798 18.4273 15.5972 19.2783 16.4046 20.2936C17.8551 22.0825 19.3829 23.4702 21.0655 24.5387C21.2734 24.6741 21.4958 24.7804 21.7037 24.8868C21.8971 24.9835 22.076 25.0754 22.2355 25.1769C22.2549 25.1866 22.2694 25.1962 22.2887 25.2059C22.4483 25.2881 22.603 25.3268 22.7577 25.3268C23.1445 25.3268 23.3959 25.0802 23.4781 24.998L25.2864 23.1897C25.5668 22.9093 25.8714 22.7594 26.1711 22.7594C26.5386 22.7594 26.8384 22.9867 27.0269 23.1897L29.9424 26.1004C30.5226 26.6806 30.5177 27.3091 29.9279 27.9231C29.7248 28.1407 29.5121 28.3486 29.2848 28.5662C28.9464 28.895 28.5934 29.2334 28.2743 29.6154C27.7183 30.2149 27.0559 30.4953 26.2002 30.4953C26.118 30.4953 26.0309 30.4905 25.9487 30.4856C24.3629 30.3841 22.8882 29.7652 21.781 29.2382C18.7737 27.7829 16.1338 25.7184 13.9436 23.0979C12.1402 20.927 10.9266 18.906 10.124 16.74C9.62604 15.4104 9.43748 14.3418 9.51484 13.37Z" fill="#5531D2"/>
<path fill-rule="evenodd" clip-rule="evenodd" d="M12.8328 24.0024C10.923 21.7077 9.63045 19.5512 8.77269 17.2231C8.21325 15.7165 7.99032 14.451 8.08591 13.2487C8.16824 12.2658 8.56656 11.4119 9.26554 10.7129L11.078 8.90044C11.6339 8.37058 12.2833 8.08203 12.9718 8.08203C13.6637 8.08203 14.3085 8.36946 14.8462 8.8956C15.1793 9.20436 15.5159 9.54592 15.8345 9.87423C15.8345 9.87426 15.8345 9.87421 15.8345 9.87423L15.8475 9.88755C16.0075 10.0523 16.1618 10.2112 16.3251 10.3745L17.7651 11.8145C17.7653 11.8146 17.765 11.8143 17.7651 11.8145C18.3296 12.374 18.6418 13.0396 18.6418 13.7326C18.6418 14.4267 18.3243 15.0916 17.7659 15.65C17.6158 15.8001 17.4674 15.9486 17.324 16.0967C16.953 16.4764 16.5657 16.8687 16.1553 17.2476C16.4639 17.9161 16.8965 18.5884 17.5279 19.3877C18.8816 21.0474 20.2929 22.3332 21.8425 23.3171C21.9899 23.411 22.1585 23.4978 22.3522 23.5947L22.3549 23.596C22.4563 23.6467 22.5651 23.7011 22.6753 23.7599L24.2731 22.162C24.819 21.6161 25.4747 21.3104 26.1711 21.3104C26.8673 21.3104 27.519 21.6159 28.0515 22.1686L30.9556 25.0726C31.515 25.6321 31.8083 26.2939 31.8097 26.9744C31.811 27.6543 31.5209 28.3234 30.9689 28.8988C30.7433 29.1342 30.5086 29.3639 30.2805 29.5824C30.2584 29.6039 30.2364 29.6252 30.2146 29.6464C29.9077 29.9441 29.6259 30.2174 29.3764 30.5168C29.3674 30.53 29.3591 30.54 29.3538 30.5462C29.3465 30.5547 29.3396 30.5619 29.3352 30.5664C28.4985 31.4733 27.4649 31.9154 26.1953 31.9154C26.083 31.9154 25.9757 31.9107 25.8705 31.9061L25.8504 31.9052C24.0072 31.786 22.3616 31.0915 21.1518 30.5182L21.1498 30.5172C17.9555 28.9689 15.1566 26.7802 12.8328 24.0024ZM29.1543 30.3938C29.1591 30.3889 29.1688 30.3793 29.1736 30.3696C29.4348 30.0544 29.7294 29.7686 30.0381 29.4692C30.0609 29.4471 30.0838 29.4249 30.1068 29.4026C30.334 29.185 30.5661 28.9578 30.7885 28.7257C31.8183 27.6524 31.8183 26.2889 30.7788 25.2494L27.873 22.3436C27.3799 21.8311 26.79 21.5604 26.1711 21.5604C25.5523 21.5604 24.9576 21.8311 24.4499 22.3388L22.719 24.0697C22.5595 23.9778 22.3951 23.8956 22.2404 23.8183C22.047 23.7216 21.8681 23.6297 21.7085 23.5282C20.1323 22.5274 18.7012 21.2219 17.3329 19.5442C16.6415 18.6691 16.1774 17.9342 15.8534 17.1848C16.3079 16.7738 16.7334 16.3435 17.1443 15.9229C17.2894 15.773 17.4393 15.6231 17.5892 15.4732C18.1113 14.951 18.3918 14.3467 18.3918 13.7326C18.3918 13.1186 18.1162 12.5142 17.5892 11.9921L16.1484 10.5513C15.9837 10.3866 15.8282 10.2265 15.6685 10.0621L15.6552 10.0484C15.3361 9.71965 15.0025 9.38121 14.6737 9.07661C14.1757 8.58828 13.5907 8.33203 12.9718 8.33203C12.3578 8.33203 11.7679 8.58828 11.2506 9.08144L9.44232 10.8897C8.78477 11.5473 8.41248 12.345 8.33512 13.2685C8.24326 14.424 8.45599 15.6521 9.00717 17.1364C9.85328 19.433 11.1297 21.5652 13.025 23.8425C15.3264 26.5935 18.0968 28.7596 21.2589 30.2922C22.4628 30.8628 24.0728 31.5397 25.8665 31.6557L25.8799 31.6563C25.9863 31.6609 26.0886 31.6654 26.1953 31.6654C27.3992 31.6654 28.3662 31.2496 29.1543 30.3938ZM13.8421 9.93723C13.5665 9.6568 13.2667 9.51659 12.9718 9.51659C12.672 9.51659 12.3626 9.6568 12.0822 9.92756L10.2836 11.7261C9.81944 12.1903 9.57286 12.727 9.51484 13.37C9.43748 14.3418 9.62604 15.4104 10.124 16.74C10.9266 18.906 12.1402 20.927 13.9436 23.0979C16.1338 25.7184 18.7737 27.7829 21.781 29.2382C22.8882 29.7652 24.3629 30.3841 25.9487 30.4856C26.0309 30.4905 26.118 30.4953 26.2002 30.4953C27.0559 30.4953 27.7183 30.2149 28.2743 29.6154C28.576 29.2543 28.9079 28.932 29.2293 28.6201C29.2478 28.6021 29.2664 28.5841 29.2848 28.5662C29.5121 28.3486 29.7248 28.1407 29.9279 27.9231C30.5177 27.3091 30.5226 26.6806 29.9424 26.1004L27.0269 23.1897C26.8384 22.9867 26.5386 22.7594 26.1711 22.7594C25.8714 22.7594 25.5668 22.9093 25.2864 23.1897L23.4781 24.998C23.3959 25.0802 23.1445 25.3268 22.7577 25.3268C22.603 25.3268 22.4483 25.2881 22.2887 25.2059C22.279 25.2011 22.2706 25.1962 22.2621 25.1914C22.2536 25.1866 22.2452 25.1817 22.2355 25.1769C22.076 25.0754 21.8971 24.9835 21.7037 24.8868C21.6688 24.8689 21.6334 24.8511 21.5978 24.8331C21.4215 24.7439 21.2385 24.6513 21.0655 24.5387C19.3829 23.4702 17.8551 22.0825 16.4046 20.2936C15.5972 19.2783 15.0798 18.4273 14.7075 17.5329C14.7051 17.5256 14.7027 17.5196 14.7003 17.5135C14.6979 17.5075 14.6955 17.5015 14.693 17.4942C14.5963 17.2041 14.5335 16.8222 14.9348 16.4209L14.959 16.3967C15.3881 16.0167 15.78 15.6202 16.1921 15.2034C16.2257 15.1694 16.2595 15.1352 16.2934 15.1009C16.3683 15.026 16.4433 14.9498 16.5182 14.8737C16.5932 14.7975 16.6681 14.7214 16.743 14.6464C17.0428 14.3467 17.1975 14.0421 17.1975 13.7423C17.1975 13.4425 17.0428 13.1379 16.743 12.8382L15.3022 11.3974C15.2182 11.311 15.1342 11.2257 15.0508 11.1411C14.9662 11.0553 14.8822 10.9701 14.7994 10.8849C14.7557 10.8405 14.7124 10.7965 14.6694 10.7528C14.3893 10.4679 14.123 10.1971 13.8421 9.93723ZM14.6207 11.0597C14.5769 11.0152 14.5336 10.9712 14.4908 10.9277C14.2103 10.6425 13.9485 10.3763 13.6723 10.1207L13.6636 10.1127C13.4216 9.86642 13.1827 9.76659 12.9718 9.76659C12.7532 9.76659 12.5035 9.86883 12.2574 10.1059L10.4604 11.9029C10.0384 12.3249 9.81698 12.8064 9.76395 13.3912C9.69072 14.3142 9.86825 15.3443 10.3582 16.6523C11.149 18.7866 12.3466 20.7842 14.1356 22.9378C16.3033 25.5313 18.9148 27.5734 21.8894 29.013C22.991 29.5372 24.4288 30.1376 25.9638 30.2361C26.0464 30.241 26.1264 30.2453 26.2002 30.2453C26.988 30.2453 27.5815 29.9925 28.0868 29.4499C28.396 29.0805 28.735 28.7515 29.053 28.4428C29.0723 28.4241 29.0915 28.4054 29.1106 28.3869L29.1119 28.3856C29.3384 28.1688 29.547 27.9648 29.7451 27.7526L29.7476 27.7499C30.0149 27.4716 30.1222 27.219 30.1239 26.9971C30.1256 26.7772 30.0242 26.5357 29.7656 26.2771L26.8436 23.36C26.6729 23.1762 26.4353 23.0094 26.1711 23.0094C25.9581 23.0094 25.7134 23.1162 25.4631 23.3665L23.6549 25.1748C23.5679 25.2617 23.2529 25.5768 22.7577 25.5768C22.5593 25.5768 22.366 25.5268 22.1753 25.4287C22.16 25.421 22.147 25.4136 22.1392 25.4091L22.1381 25.4085C22.1291 25.4033 22.1263 25.4018 22.1237 25.4005L22.1122 25.3947L22.1013 25.3878C21.9539 25.294 21.7856 25.2073 21.5919 25.1104L21.5898 25.1094C21.557 25.0926 21.5231 25.0755 21.4884 25.0579C21.3124 24.969 21.1154 24.8694 20.9302 24.7489C19.2224 23.6642 17.6752 22.2577 16.2104 20.4511L16.2089 20.4492C15.3908 19.4205 14.86 18.5497 14.4767 17.629L14.4732 17.6206L14.4705 17.6122C14.4705 17.6122 14.4701 17.6111 14.4682 17.6064C14.4657 17.6003 14.4607 17.5876 14.4559 17.5733C14.4029 17.4144 14.35 17.2048 14.379 16.9687C14.4088 16.7263 14.5218 16.4803 14.758 16.2441L14.7929 16.2092C15.2155 15.835 15.6021 15.4446 16.0154 15.0265C16.0486 14.9929 16.082 14.9591 16.1157 14.9251L16.1166 14.9241C16.1907 14.85 16.265 14.7746 16.34 14.6983C16.4147 14.6225 16.4907 14.5453 16.5663 14.4697C16.8397 14.1962 16.9475 13.9514 16.9475 13.7423C16.9475 13.5332 16.8397 13.2884 16.5663 13.015L15.123 11.5717C15.0395 11.4858 14.956 11.4011 14.8724 11.3162L14.871 11.3148C14.7873 11.2299 14.7035 11.1449 14.6207 11.0597ZM22.1753 25.4287C22.175 25.4285 22.1746 25.4283 22.1742 25.4282L22.2887 25.2059L22.1769 25.4295C22.1764 25.4293 22.1759 25.429 22.1753 25.4287Z" fill="#5531D2"/>
</g>
<defs>
<clipPath id="clip0_194_9422">
<rect width="40" height="40" fill="white"/>
</clipPath>
</defs>
</svg>
