<svg width="49" height="44" viewBox="0 0 49 44" fill="none" xmlns="http://www.w3.org/2000/svg">
<path d="M47.7804 22.806C46.4077 21.0234 44.718 19.5553 42.7645 18.4542C40.8637 17.4057 38.8045 16.724 36.6396 16.4094C35.6894 16.3044 34.7388 16.2521 33.7886 16.2521C34.0526 15.9376 34.3694 15.623 34.6334 15.2558C35.9534 13.5256 36.9567 11.6379 37.5375 9.54086C38.1184 7.39107 38.2767 5.18904 38.0127 2.93458C37.907 2.25286 37.3261 1.78108 36.6399 1.88604C34.3697 2.20057 32.2575 2.88233 30.304 4.03583C28.4032 5.13708 26.8191 6.55245 25.4991 8.28269C24.9183 9.01671 24.3902 9.85573 23.9681 10.6947C23.8098 10.2752 23.7041 9.9084 23.5457 9.48889C22.7008 7.4964 21.5392 5.71382 20.0081 4.14078C18.424 2.56774 16.5763 1.30967 14.464 0.417958C13.8305 0.155726 13.144 0.470258 12.8799 1.09968C12.035 3.19675 11.5599 5.34654 11.6126 7.60128C11.6126 9.75107 12.0351 11.8481 12.8799 13.893C13.2497 14.7843 13.6718 15.6232 14.1999 16.4096C13.7775 16.3046 13.355 16.2523 12.9326 16.2C10.7677 15.9378 8.60282 16.0428 6.49101 16.5672C4.32611 17.144 2.31999 18.0876 0.471806 19.4511C-0.0563451 19.8706 -0.161681 20.6045 0.260766 21.1813C1.63347 22.9639 3.32317 24.432 5.27667 25.5331C7.17747 26.5817 9.23667 27.2634 11.4016 27.5779C12.1407 27.6829 12.88 27.7352 13.6192 27.7352H14.2527C13.9886 28.0497 13.6718 28.3643 13.4078 28.7315C12.0878 30.4617 11.0845 32.3494 10.5037 34.4464C9.92286 36.5962 9.76449 38.7983 10.0286 41.0527C10.1343 41.6818 10.662 42.1013 11.2429 42.1013H11.4012C13.6714 41.7867 15.7836 41.105 17.7371 39.9515C19.5853 38.8502 21.222 37.4349 22.542 35.7046C23.1229 34.9706 23.651 34.1316 24.0731 33.2926C24.2314 33.7121 24.3371 34.0789 24.4955 34.4984C25.3404 36.4909 26.502 38.2735 28.0331 39.8465C29.6172 41.4196 31.4649 42.6776 33.5772 43.5693C33.7356 43.6216 33.8939 43.6743 34.0523 43.6743C34.5274 43.6743 35.0025 43.4121 35.1613 42.9403C36.0062 40.8432 36.4813 38.6934 36.4286 36.4387C36.4286 34.2889 36.0061 32.1918 35.1613 30.147C34.7915 29.2557 34.3694 28.4168 33.8413 27.6304C34.2637 27.7353 34.6862 27.7876 35.1086 27.8399C35.8478 27.9449 36.587 27.9972 37.3262 27.9972C38.7519 27.9972 40.1246 27.8399 41.4972 27.4727C43.6621 26.896 45.6682 25.9524 47.5164 24.5889C48.0976 24.1168 48.2029 23.3301 47.7805 22.806L47.7804 22.806ZM27.3996 9.75056C29.4588 7.07664 32.3629 5.24144 35.6363 4.55974C35.7947 7.91536 34.7387 11.1137 32.6796 13.7876C31.6237 15.1507 30.3563 16.3042 28.9306 17.1432C27.8216 17.5104 26.7657 18.0345 25.7624 18.6113C25.3399 18.7686 24.8648 18.8735 24.3897 18.9785V18.9262C24.6007 17.8777 24.7064 16.7764 24.7064 15.7279V15.5183C25.1819 13.4209 26.0794 11.481 27.3994 9.75065L27.3996 9.75056ZM23.8094 22.3866C23.7037 22.2816 23.5983 22.1243 23.5453 22.0194C23.598 21.8621 23.651 21.7571 23.7037 21.5999C23.862 21.5999 24.0204 21.5476 24.1788 21.5476C24.2845 21.6525 24.3898 21.8098 24.4428 21.9148C24.3902 22.072 24.3371 22.177 24.2845 22.3343C24.1261 22.3343 23.9677 22.3866 23.8094 22.3866ZM15.0445 12.8964C13.7245 9.75037 13.6188 6.39484 14.622 3.19661C19.2685 5.60865 22.1196 10.3273 22.2779 15.3083C22.0669 16.4095 21.9612 17.5627 21.9612 18.7162C21.8555 19.188 21.7501 19.6075 21.5914 20.0793C21.5914 20.0793 21.5387 20.0793 21.5387 20.027C20.6939 19.3453 19.8489 18.7162 18.8987 18.1395C18.8461 18.0872 18.7404 18.0872 18.6877 18.0345C17.1036 16.6717 15.8893 14.8888 15.0444 12.8967L15.0445 12.8964ZM11.6127 25.113C8.23345 24.6412 5.22366 23.0682 2.95345 20.6039C5.80446 18.8213 9.13105 18.0873 12.5103 18.5068C14.2 18.7164 15.8367 19.2408 17.3151 20.0271C18.2127 20.8135 19.1633 21.4429 20.1662 22.0196C20.5359 22.3342 20.8527 22.6487 21.1695 23.0159C21.1695 23.0159 21.1168 23.0159 21.1168 23.0682C20.1135 23.4354 19.1103 23.8545 18.1601 24.4313C18.1074 24.4836 18.0544 24.4837 17.949 24.5363C15.9422 25.2177 13.7777 25.4276 11.6128 25.1131L11.6127 25.113ZM20.5359 34.1836C18.4767 36.8575 15.5727 38.6927 12.2992 39.3744C12.0882 34.1836 14.7808 29.4124 19.0049 26.7384C20.1139 26.3712 21.1167 25.8994 22.12 25.2703C22.5425 25.113 23.0176 25.0081 23.4927 24.9031V24.9554C23.2817 26.0039 23.176 27.1052 23.176 28.1537V28.3633C22.7536 30.5134 21.856 32.4533 20.536 34.1836H20.5359ZM32.8912 31.0375C34.2112 34.1836 34.3168 37.5391 33.3136 40.7373C30.3569 39.1643 28.0336 36.7 26.7136 33.5543C26.0801 31.9812 25.7103 30.3036 25.6577 28.6783C25.8687 27.5248 25.9744 26.3713 25.9744 25.2178C26.0801 24.746 26.1855 24.3265 26.3442 23.8546C26.3442 23.8546 26.3969 23.8546 26.3969 23.9069C27.2418 24.5887 28.0867 25.2177 29.0369 25.7945C29.0895 25.8468 29.1953 25.8468 29.2479 25.8994C30.832 27.2622 32.0463 29.0451 32.8912 31.0373L32.8912 31.0375ZM30.6206 23.8545C29.723 23.1204 28.8255 22.4387 27.7696 21.9146C27.3998 21.6 27.083 21.2855 26.7663 20.9183C26.7663 20.9183 26.8189 20.9183 26.8189 20.866C27.8222 20.4988 28.8254 20.0797 29.7756 19.5029C29.8283 19.4506 29.8813 19.4506 29.9867 19.3979C31.9932 18.7688 34.1577 18.5589 36.3226 18.8211C39.7018 19.2929 42.7116 20.866 44.9818 23.3302C40.5997 26.1087 35.0563 26.1614 30.6202 23.8543L30.6206 23.8545Z" fill="#C5A6FD"/>
</svg>
